<?xml version="1.0" standalone="no"?>
<!DOCTYPE svg PUBLIC "-//W3C//DTD SVG 20010904//EN"
 "http://www.w3.org/TR/2001/REC-SVG-20010904/DTD/svg10.dtd">
<svg version="1.0" xmlns="http://www.w3.org/2000/svg"
 width="300.000000pt" height="335.000000pt" viewBox="0 0 300.000000 335.000000"
 preserveAspectRatio="xMidYMid meet">
<metadata>
Created by potrace 1.10, written by Peter Selinger 2001-2011
</metadata>
<g transform="translate(0.000000,335.000000) scale(0.100000,-0.100000)"
fill="#000000" stroke="none">
<path d="M1305 3334 c-27 -7 -62 -14 -76 -14 -38 0 -98 -27 -138 -62 -26 -23
-39 -28 -61 -23 -23 5 -36 0 -70 -31 -39 -35 -43 -37 -73 -26 -36 13 -77 6
-77 -13 0 -19 -49 -55 -74 -55 -28 0 -106 -70 -106 -95 0 -41 -36 -110 -74
-144 -238 -211 -400 -489 -468 -804 -31 -146 -31 -418 0 -564 111 -513 478
-929 960 -1084 l72 -23 0 -42 c0 -89 82 -138 256 -155 59 -5 109 -8 111 -5 3
2 -22 12 -53 21 -108 31 -189 85 -208 139 -6 17 -3 18 31 12 21 -3 62 -9 91
-12 52 -7 54 -8 111 -83 97 -128 125 -181 125 -228 -1 -24 2 -43 5 -43 12 1
115 75 118 86 2 5 -12 18 -32 27 -27 13 -43 33 -71 89 -20 40 -42 89 -50 110
l-13 38 49 0 c49 0 50 -1 110 -72 46 -56 60 -79 60 -104 0 -44 16 -51 34 -16
19 37 42 56 51 42 4 -7 16 -4 33 9 15 10 54 32 87 49 89 45 108 70 113 146 l4
63 65 32 c35 17 107 59 160 92 52 33 97 58 99 56 10 -10 -11 -35 -62 -76 -50
-40 -66 -61 -45 -61 4 0 29 18 55 41 38 34 49 39 61 29 15 -13 22 -2 56 88 10
25 27 29 35 7 10 -25 20 -17 32 23 7 20 26 61 43 90 35 62 81 88 135 77 81
-15 67 -135 -16 -135 -39 0 -38 12 1 27 24 9 30 17 27 35 -4 30 -56 38 -75 12
-30 -42 -2 -94 51 -94 36 0 86 49 86 85 0 70 -60 116 -124 95 -20 -6 -38 -16
-41 -21 -4 -5 -11 -9 -16 -9 -6 0 8 21 31 48 93 104 211 342 254 509 128 497
-15 1025 -375 1385 -43 43 -87 91 -99 108 -13 19 -30 30 -45 30 -13 0 -27 5
-30 10 -4 6 -24 22 -46 35 -24 16 -48 43 -63 73 -38 74 -90 129 -130 136 -40
8 -123 42 -130 55 -3 5 -38 12 -77 15 -57 6 -72 11 -76 26 -5 20 -48 32 -82
23 -12 -3 -53 3 -91 13 -62 16 -79 16 -141 6 -41 -7 -77 -9 -87 -3 -34 17 -68
18 -117 5z m98 -24 c41 -18 52 -19 115 -9 58 10 78 9 124 -5 31 -9 71 -16 90
-16 18 0 56 -12 83 -25 28 -14 64 -25 80 -25 17 0 46 -8 65 -18 19 -10 64 -29
99 -42 64 -23 136 -81 128 -103 -7 -23 78 -114 139 -148 59 -34 154 -129 154
-156 0 -15 2 -16 10 -3 8 12 18 6 52 -34 152 -174 266 -388 317 -595 35 -138
44 -240 38 -402 -10 -284 -77 -487 -241 -738 -36 -55 -66 -106 -66 -114 0 -7
-27 -49 -60 -93 -33 -43 -60 -82 -60 -86 0 -10 -40 -31 -47 -25 -3 3 10 19 29
36 27 25 30 30 14 31 -23 0 -56 -27 -56 -47 0 -11 -4 -11 -21 -2 -15 7 -19 8
-15 0 8 -13 -54 -53 -71 -46 -7 2 -13 -3 -13 -13 0 -10 -21 -28 -50 -44 -28
-16 -50 -23 -50 -18 0 6 -9 1 -20 -10 -23 -23 -40 -25 -60 -8 -12 11 -12 10
-1 -4 14 -19 7 -38 -14 -38 -7 0 -20 -6 -27 -13 -7 -7 -23 -16 -35 -19 -17 -5
-24 0 -33 21 -8 21 -9 22 -6 3 2 -12 -1 -28 -8 -35 -6 -6 -19 -24 -29 -39 -20
-31 -57 -37 -77 -13 -9 11 -16 13 -24 5 -5 -5 -29 -10 -52 -10 -27 0 -50 -7
-65 -20 l-24 -19 35 0 c19 1 46 4 60 8 21 6 27 2 40 -24 13 -27 20 -30 58 -29
52 1 89 32 98 81 4 22 14 37 28 43 11 4 22 7 24 5 8 -7 -33 -94 -55 -118 -58
-60 -165 -56 -255 8 -39 29 -50 32 -54 20 -5 -13 -10 -12 -34 5 -70 50 -159 7
-145 -70 l6 -35 -46 52 c-26 29 -66 66 -91 82 l-44 30 17 -26 c17 -26 17 -26
-7 -17 -14 5 -46 9 -72 9 -27 0 -48 5 -48 10 -1 15 -40 -38 -40 -53 0 -7 7
-26 15 -42 9 -17 11 -30 6 -30 -16 0 -51 51 -51 75 0 43 -12 87 -21 74 -6 -10
-11 -10 -21 -1 -8 6 -50 24 -95 41 -204 75 -355 172 -513 331 -165 165 -267
329 -339 546 -56 167 -64 222 -65 434 -1 209 5 247 56 415 66 218 178 404 347
578 58 59 111 117 117 129 11 21 12 21 16 2 4 -15 6 -13 12 11 4 17 11 38 17
48 6 11 6 17 -1 17 -5 0 -10 7 -10 15 0 8 8 15 19 15 10 0 24 7 31 15 7 8 21
15 32 15 17 0 78 26 78 34 0 1 -25 -6 -56 -16 -81 -27 -90 -15 -14 19 36 17
71 37 79 46 7 10 27 17 45 17 l31 -1 -30 -25 -30 -25 40 20 c22 12 51 21 65
22 14 0 19 3 13 6 -7 2 -13 8 -13 12 0 10 69 47 104 55 17 4 41 15 55 25 36
25 108 61 123 61 6 0 -4 -17 -23 -37 l-34 -37 32 26 c18 14 55 34 82 43 45 15
52 15 87 0 50 -21 54 -13 4 10 -22 10 -37 22 -34 26 7 12 4 12 57 -11z m390
-3036 c43 -22 44 -24 27 -34 -24 -16 -35 -12 -53 20 -21 35 -18 36 26 14z"/>
<path d="M1485 3280 c-36 -6 -27 -7 35 -4 105 5 142 -4 151 -37 6 -22 7 -21 8
7 1 28 -3 32 -30 38 -37 7 -94 6 -164 -4z"/>
<path d="M1855 3203 c22 -3 45 -9 52 -15 10 -8 13 -6 13 6 0 13 -10 16 -52 14
-48 -1 -49 -2 -13 -5z"/>
<path d="M2010 3143 c19 -3 43 -14 54 -24 20 -22 30 -20 21 4 -7 18 -38 27
-80 25 -28 -1 -28 -1 5 -5z"/>
<path d="M940 2784 c-14 -2 -56 -9 -93 -15 -52 -8 -77 -18 -102 -40 -31 -28
-34 -29 -45 -12 -11 16 -11 16 -5 -2 16 -47 17 -57 2 -73 -16 -18 -56 -111
-77 -177 -7 -22 -25 -61 -41 -86 -16 -25 -32 -61 -35 -80 -4 -19 -14 -44 -22
-57 -13 -20 -13 -25 -1 -38 13 -13 119 -46 119 -37 0 13 -53 84 -70 93 -20 11
-20 11 1 53 12 23 30 53 40 66 11 13 28 56 40 95 27 89 95 223 123 241 57 36
284 50 416 26 71 -14 180 -48 193 -61 7 -6 -50 -216 -79 -295 -2 -6 20 -11 53
-12 123 -5 229 -87 268 -207 21 -66 30 -182 17 -227 -9 -35 -8 -37 22 -52 l33
-15 34 46 c50 68 91 92 153 91 46 -1 48 -2 19 -9 -39 -9 -83 -36 -83 -51 0 -6
13 0 30 14 23 20 45 27 104 32 40 4 87 4 104 1 80 -18 114 -129 76 -246 -21
-65 -93 -131 -191 -177 -102 -47 -136 -52 -174 -24 -16 12 -29 17 -29 12 0
-18 44 -41 76 -41 56 0 203 69 255 119 l47 46 8 -135 c5 -74 8 -179 6 -233 -3
-91 -1 -100 19 -116 31 -25 20 -57 -42 -125 -116 -127 -294 -237 -521 -322
-67 -26 -179 -71 -247 -100 -98 -43 -127 -51 -138 -42 -22 18 -59 96 -83 176
-29 95 -37 102 -113 100 l-62 -1 63 -6 c70 -7 74 -10 98 -91 22 -74 67 -172
87 -189 15 -12 25 -10 78 13 67 29 73 30 64 16 -4 -6 9 -3 29 6 19 10 33 22
29 27 -3 5 4 6 18 2 19 -5 21 -4 9 5 -12 8 -6 10 25 6 26 -4 32 -3 16 2 -21 6
-6 14 87 46 227 78 408 181 533 305 97 95 112 127 86 174 -19 32 -23 183 -7
252 5 24 5 42 0 45 -5 3 -13 45 -16 92 -6 69 -3 97 11 140 39 117 10 240 -65
278 -29 15 -63 20 -153 22 -130 3 -145 -3 -215 -84 -19 -21 -38 -36 -43 -32
-5 3 -9 38 -9 79 0 147 -41 258 -122 329 -47 41 -125 76 -169 76 -32 0 -32 22
1 133 36 120 36 152 0 178 -58 43 -342 90 -440 73z"/>
<path d="M1095 2671 c-50 -8 -65 -17 -65 -40 0 -49 105 -75 144 -35 20 19 6
49 -26 60 -22 7 -22 7 -3 15 24 9 6 9 -50 0z m60 -34 c27 -20 10 -37 -39 -37
-46 0 -83 20 -72 38 10 16 88 15 111 -1z"/>
<path d="M1011 2356 c-19 -22 2 -26 28 -5 22 18 22 19 3 19 -11 0 -25 -6 -31
-14z"/>
<path d="M890 2300 c-14 -5 -44 -14 -67 -20 -52 -13 -86 -40 -78 -61 8 -21 60
-18 102 4 18 10 50 18 72 20 29 2 45 10 66 35 l27 32 -49 -1 c-26 0 -59 -4
-73 -9z"/>
<path d="M1016 2271 l-29 -30 29 -6 c91 -21 182 -48 202 -61 l24 -16 -23 31
c-24 32 -66 62 -133 93 -21 10 -39 18 -40 18 -1 0 -15 -13 -30 -29z"/>
<path d="M496 2178 c-4 -15 -4 -37 0 -50 4 -13 9 -26 10 -30 1 -5 3 -11 4 -15
1 -5 2 -11 1 -15 0 -5 8 -8 19 -8 11 0 23 -7 26 -15 9 -23 44 -19 44 5 0 22 7
25 29 11 11 -7 10 -11 -5 -19 -10 -6 -16 -13 -12 -17 14 -14 48 35 47 68 -1
17 -3 24 -6 15 -4 -16 -7 -16 -33 -3 -16 8 -44 14 -62 14 -30 -1 -29 -2 10 -8
23 -4 48 -13 54 -19 10 -10 1 -12 -40 -8 -29 2 -55 6 -57 8 -3 2 -8 29 -13 59
-8 47 -10 51 -16 27z"/>
<path d="M930 2150 c25 -4 72 -15 105 -24 32 -8 61 -13 63 -11 9 8 -133 45
-172 44 l-41 -1 45 -8z"/>
<path d="M860 2134 c0 -9 8 -22 17 -29 15 -11 16 -15 1 -36 l-15 -24 83 0 c45
0 86 3 90 8 4 4 28 7 53 7 64 1 38 13 -84 40 -55 12 -110 29 -122 36 -20 13
-23 13 -23 -2z m168 -54 c6 0 12 -4 12 -10 0 -5 -16 -10 -35 -10 -26 0 -35 4
-35 16 0 12 6 15 23 10 12 -3 28 -6 35 -6z"/>
<path d="M539 2035 c0 -5 -2 -23 -4 -40 -1 -16 -3 -33 -4 -37 0 -3 -17 -28
-37 -54 -48 -62 -84 -135 -84 -168 0 -38 24 -81 60 -106 36 -26 39 -58 10
-115 -23 -45 -25 -80 -6 -115 12 -21 12 -29 -5 -63 -26 -51 -13 -94 38 -128
52 -34 70 -64 88 -144 8 -38 17 -77 19 -85 3 -8 5 -19 5 -23 1 -5 7 -5 14 0 6
4 75 8 152 8 121 1 147 4 193 23 28 12 52 18 52 13 0 -4 -30 -20 -67 -35 -38
-15 -81 -38 -98 -52 -16 -15 -25 -24 -20 -22 6 3 31 14 57 26 26 12 52 22 58
22 5 0 29 9 53 21 32 16 48 32 60 60 9 22 17 44 17 49 0 15 -27 12 -33 -4 -10
-25 -108 -67 -180 -76 -38 -4 -71 -11 -75 -14 -3 -3 -16 1 -29 9 -18 12 -34
13 -77 7 -30 -5 -60 -6 -66 -2 -6 3 -14 36 -18 72 -6 45 -17 79 -35 106 l-26
40 37 7 c81 15 277 149 269 184 -2 9 -9 15 -16 13 -7 -1 -10 2 -7 7 9 14 -9
22 -53 27 -42 4 -125 36 -135 53 -4 6 10 3 30 -5 20 -8 38 -13 41 -11 2 3 -21
14 -52 26 -58 22 -91 28 -67 12 16 -10 -16 -21 -63 -21 -22 0 -26 -3 -16 -9 8
-5 28 -7 45 -4 45 7 276 -78 276 -102 0 -20 -177 -142 -219 -151 -14 -3 -37
-9 -51 -13 -24 -7 -73 10 -85 30 -15 23 -7 71 15 94 l22 24 -21 27 c-21 27
-28 78 -12 88 4 3 16 33 25 67 19 66 18 68 -36 99 -10 6 -25 24 -33 41 -25 47
-11 82 93 229 31 44 31 46 17 85 -8 22 -15 36 -16 30z"/>
<path d="M905 1996 c44 -29 66 -31 114 -15 44 15 33 22 -41 24 -35 1 -74 5
-88 9 -18 5 -13 0 15 -18z"/>
<path d="M620 1975 c-13 -14 -21 -25 -17 -25 4 0 -18 -32 -48 -70 -57 -74 -73
-107 -58 -120 4 -4 33 -11 63 -14 l55 -7 -34 16 c-18 8 -44 12 -57 9 -13 -3
-24 -2 -24 3 0 11 94 149 123 181 17 18 32 52 23 52 -1 0 -13 -11 -26 -25z"/>
<path d="M660 1960 c0 -6 -18 -33 -40 -61 -43 -55 -50 -87 -22 -112 23 -21 37
-10 37 30 0 24 -3 29 -12 21 -26 -21 -13 12 22 58 37 48 41 59 25 69 -5 3 -10
1 -10 -5z"/>
<path d="M1985 1953 c-11 -2 -36 -17 -55 -33 l-35 -29 38 -1 c26 0 37 4 37 15
0 8 6 15 13 15 6 0 30 5 51 11 61 17 18 36 -49 22z"/>
<path d="M1083 1896 c-24 -20 -25 -26 -14 -40 7 -9 22 -16 33 -16 45 0 79 40
57 66 -17 21 -44 17 -76 -10z m67 -1 c0 -19 -35 -37 -63 -33 -20 3 -19 6 13
26 41 26 50 27 50 7z"/>
<path d="M2056 1837 c10 -21 14 -45 10 -60 -7 -31 -53 -87 -70 -87 -7 0 -20
-6 -30 -13 -16 -12 -16 -14 -2 -26 14 -12 16 -12 11 0 -4 10 2 15 16 16 12 1
33 12 46 25 58 54 71 130 28 161 l-25 18 16 -34z"/>
<path d="M1959 1813 c6 -12 8 -28 6 -36 -3 -7 1 -20 10 -27 13 -11 13 -15 3
-21 -10 -7 -10 -9 0 -9 13 0 16 6 27 55 4 16 3 27 -1 22 -4 -4 -19 3 -32 15
-25 23 -25 23 -13 1z"/>
<path d="M1825 1808 c-11 -28 -1 -73 15 -73 11 0 15 10 13 34 -1 39 -19 63
-28 39z"/>
<path d="M770 1718 c16 -19 12 -38 -9 -38 -11 0 -23 -4 -26 -10 -3 -6 1 -7 9
-4 10 4 16 1 16 -9 0 -8 -10 -18 -22 -22 -62 -21 -64 -23 -30 -24 56 -2 105
73 68 105 -9 8 -11 9 -6 2z"/>
<path d="M1886 1714 c-3 -8 -11 -12 -17 -8 -8 4 -9 3 -5 -4 4 -7 18 -11 31
-10 19 2 22 5 14 20 -12 22 -15 22 -23 2z"/>
<path d="M1825 1680 c-16 -18 -19 -18 -30 -4 -11 15 -12 15 -18 1 -3 -9 -2
-19 4 -22 5 -4 7 -11 3 -16 -3 -6 10 0 30 13 20 13 36 29 36 36 0 16 -4 15
-25 -8z"/>
<path d="M565 1660 c-10 -17 5 -30 35 -30 36 0 47 16 21 29 -25 14 -48 14 -56
1z"/>
<path d="M636 1393 c-29 -3 -36 -7 -25 -14 9 -6 -1 -7 -31 -3 -36 5 -43 4 -33
-6 6 -7 24 -12 40 -12 15 0 69 1 120 2 53 0 95 5 99 11 4 7 -9 8 -40 4 -25 -4
-54 -4 -63 0 -17 7 -16 8 2 15 18 8 17 8 -5 8 -14 -1 -43 -3 -64 -5z"/>
<path d="M1787 803 c-34 -26 -62 -63 -35 -47 8 5 9 2 5 -10 -4 -11 -3 -15 4
-11 6 4 8 13 5 21 -3 8 0 11 8 8 7 -3 19 3 27 12 9 12 10 15 2 10 -21 -12 -14
5 10 25 34 29 15 22 -26 -8z"/>
<path d="M1928 668 c-7 -19 2 -39 14 -32 6 4 8 -1 4 -13 -4 -14 -2 -20 9 -20
19 0 19 7 1 32 -7 11 -14 24 -14 28 -1 15 -9 18 -14 5z"/>
<path d="M1956 565 c8 -37 14 -44 15 -19 0 18 1 18 9 -1 5 -13 9 -14 9 -5 0
22 -17 59 -18 40 -1 -13 -2 -13 -11 0 -8 11 -9 7 -4 -15z"/>
</g>
</svg>
