<svg id="svg" version="1.1" xmlns="http://www.w3.org/2000/svg" xmlns:xlink="http://www.w3.org/1999/xlink" width="100" height="100" viewBox="0, 0, 400,447.301394784718"><g id="svgg"><path id="path0" d="M128.927 79.713 C 120.087 80.396,110.021 82.052,104.685 83.700 C 102.919 84.245,101.547 85.433,99.969 87.782 C 98.845 89.456,98.497 90.121,99.254 89.149 C 100.553 87.483,100.906 87.262,100.036 88.660 C 93.368 99.373,89.487 107.595,87.167 115.925 C 84.745 124.617,83.836 126.807,81.225 130.235 C 78.727 133.516,77.949 134.836,76.324 138.557 C 75.477 140.497,74.480 142.483,74.108 142.971 C 73.736 143.459,73.474 143.886,73.526 143.920 C 73.578 143.954,74.057 144.130,74.591 144.311 C 76.359 144.910,80.345 147.410,79.121 147.153 C 78.652 147.054,78.757 147.245,79.744 148.290 C 87.900 156.915,90.668 169.963,85.317 174.565 C 84.720 175.079,84.098 175.324,82.009 175.870 C 81.156 176.093,80.536 176.561,78.977 178.154 C 77.899 179.257,76.471 180.467,75.804 180.844 C 75.136 181.221,74.558 181.552,74.518 181.579 C 74.478 181.606,74.797 182.342,75.227 183.214 L 76.009 184.798 75.224 186.092 C 74.009 188.097,70.179 193.482,68.166 196.016 C 59.834 206.503,56.351 215.771,58.761 221.036 C 59.397 222.424,61.562 224.755,64.827 227.566 L 66.463 228.976 68.465 228.239 C 71.005 227.305,71.186 227.182,72.996 225.145 C 75.633 222.179,77.715 222.199,84.690 225.258 C 89.995 227.585,93.701 227.296,97.425 224.262 C 99.989 222.173,103.742 221.944,103.840 223.870 C 103.872 224.490,104.546 222.750,104.902 221.132 C 105.081 220.316,105.238 219.926,105.252 220.264 C 105.410 224.279,100.857 231.441,96.934 233.350 C 93.935 234.808,88.832 235.351,87.010 234.406 C 84.474 233.089,75.568 234.362,74.749 236.158 C 73.471 238.963,74.982 240.789,79.837 242.310 C 88.733 245.097,89.175 245.267,94.368 247.883 C 97.240 249.331,100.897 251.219,102.494 252.080 C 104.091 252.940,105.943 253.780,106.610 253.945 C 108.457 254.404,111.093 255.772,112.310 256.904 C 113.871 258.356,116.100 259.394,121.638 261.249 C 124.313 262.145,127.592 263.345,128.927 263.917 C 136.882 267.328,141.333 265.966,149.683 257.567 C 154.535 252.686,154.708 252.315,153.666 249.051 C 151.580 242.519,154.156 238.117,165.191 229.359 C 173.606 222.680,175.185 221.384,177.124 219.560 C 178.207 218.541,179.674 216.998,180.385 216.131 C 181.095 215.264,182.445 213.626,183.385 212.492 C 192.497 201.498,197.902 187.975,199.770 171.498 C 200.181 167.870,200.718 138.814,200.402 137.304 C 199.811 134.480,187.165 130.625,176.811 130.113 C 173.852 129.966,173.416 129.893,173.511 129.557 C 173.571 129.344,175.374 123.438,177.518 116.434 C 179.662 109.430,181.735 102.608,182.124 101.273 C 182.514 99.939,183.403 96.907,184.101 94.535 C 185.618 89.381,185.737 89.830,182.494 88.465 C 167.326 82.080,145.160 78.459,128.927 79.713 M150.220 93.891 C 154.602 95.349,157.045 97.840,155.194 98.965 C 150.671 101.715,140.049 99.746,139.104 95.982 C 138.570 93.853,145.936 92.467,150.220 93.891 M140.222 134.636 C 141.244 135.182,140.571 137.132,138.217 140.444 C 137.552 141.380,137.484 141.537,137.989 140.966 L 138.712 140.149 140.895 140.775 C 143.797 141.608,144.937 142.095,144.087 142.138 C 143.709 142.158,144.412 142.524,145.959 143.113 C 149.755 144.558,156.778 148.104,153.950 147.147 C 152.243 146.570,152.599 146.891,154.973 148.070 C 159.514 150.324,163.787 153.376,160.451 151.983 C 159.679 151.660,159.783 151.828,161.683 153.984 C 163.792 156.376,165.598 158.800,165.411 158.988 C 165.354 159.044,164.435 158.434,163.369 157.631 C 159.864 154.991,159.399 154.702,159.543 155.250 C 159.704 155.866,159.752 155.874,157.645 154.913 C 156.659 154.464,153.996 153.591,151.728 152.974 C 147.642 151.862,146.520 151.598,139.236 150.032 C 137.168 149.588,135.804 149.202,136.204 149.175 C 136.604 149.148,135.949 148.975,134.748 148.791 C 133.548 148.607,132.412 148.428,132.225 148.394 C 132.012 148.355,132.640 147.423,133.902 145.907 C 135.012 144.572,135.547 143.823,135.092 144.240 C 132.430 146.680,132.331 145.837,134.567 139.748 C 136.194 135.318,138.166 133.535,140.222 134.636 M131.727 138.895 C 134.334 139.296,134.362 139.307,134.012 139.814 C 133.817 140.096,132.265 142.041,130.564 144.136 L 127.471 147.945 125.136 147.957 C 123.367 147.966,122.727 148.057,122.498 148.332 C 122.332 148.532,122.043 148.696,121.856 148.696 C 119.730 148.696,117.191 150.462,115.986 152.778 C 113.845 156.892,114.190 157.543,118.617 157.749 C 126.506 158.117,151.068 162.274,159.976 164.749 C 167.568 166.859,169.157 169.215,165.610 173.104 C 163.000 175.964,162.518 176.097,156.633 175.577 C 152.181 175.184,150.176 175.780,145.300 178.943 C 135.859 185.067,125.603 185.687,119.758 180.485 C 118.851 179.678,117.900 179.018,117.644 179.018 C 117.087 179.018,115.851 177.320,116.174 176.998 C 116.831 176.341,121.608 176.982,123.801 178.021 C 131.157 181.507,138.120 180.334,137.734 175.676 C 137.639 174.532,137.147 174.456,133.474 175.021 C 129.355 175.655,121.484 175.782,118.338 175.266 C 116.360 174.942,115.648 174.908,115.252 175.120 C 114.703 175.414,114.556 175.172,115.008 174.719 C 115.208 174.519,115.025 174.318,114.310 173.954 C 112.577 173.070,112.008 172.117,110.880 168.213 C 109.951 164.998,107.091 160.983,105.555 160.737 C 102.678 160.277,98.446 157.358,97.513 155.191 C 95.439 150.369,98.462 145.805,105.036 143.834 C 106.035 143.535,107.368 143.033,107.997 142.718 C 109.400 142.017,109.605 142.002,109.025 142.644 C 108.622 143.089,108.783 143.064,110.573 142.404 C 113.151 141.453,116.148 140.691,117.309 140.691 C 118.178 140.691,118.201 140.672,117.754 140.314 C 117.321 139.967,117.442 139.945,119.281 140.031 C 120.879 140.107,121.227 140.064,121.021 139.816 C 120.697 139.425,122.131 139.113,123.347 139.310 C 123.798 139.383,124.202 139.340,124.244 139.214 C 124.538 138.332,127.296 138.215,131.727 138.895 M123.469 147.483 C 123.004 147.784,123.634 147.789,125.045 147.497 L 126.016 147.297 124.924 147.272 C 124.324 147.259,123.669 147.354,123.469 147.483 M68.163 155.332 C 68.163 159.271,69.182 165.019,69.707 164.038 C 69.864 163.744,70.456 163.163,71.022 162.747 C 73.432 160.975,73.866 158.686,72.131 156.908 C 70.688 155.431,68.163 154.428,68.163 155.332 M129.597 172.400 C 129.966 172.455,130.512 172.454,130.810 172.396 C 131.108 172.339,130.807 172.293,130.139 172.295 C 129.472 172.297,129.228 172.344,129.597 172.400 M262.341 181.387 C 260.848 182.050,258.752 182.200,254.700 181.934 C 251.193 181.704,244.859 185.948,242.978 189.789 C 241.530 192.746,242.059 194.509,245.055 196.712 C 246.435 197.726,246.718 197.670,248.842 195.957 C 257.087 189.307,264.292 186.670,274.032 186.739 C 279.774 186.779,279.772 186.780,278.857 185.218 C 276.742 181.608,266.956 179.339,262.341 181.387 M88.053 184.837 C 88.053 186.577,87.257 188.094,84.982 190.689 C 78.523 198.057,77.380 199.846,77.380 202.591 C 77.380 205.916,78.091 207.700,80.457 210.313 C 82.228 212.268,82.269 212.580,80.849 213.308 C 79.564 213.966,78.723 213.801,76.057 212.371 C 73.061 210.764,72.223 210.678,70.186 211.765 C 68.576 212.624,68.319 212.649,67.677 212.007 C 66.670 210.999,66.949 210.346,70.930 204.384 C 81.345 188.787,88.053 181.130,88.053 184.837 M270.860 184.227 C 271.544 184.301,272.690 184.571,273.407 184.826 L 274.712 185.289 272.408 185.309 C 271.140 185.321,268.084 185.541,265.616 185.799 C 258.994 186.490,258.275 186.591,258.586 186.783 C 258.762 186.892,258.619 187.021,258.212 187.123 C 256.458 187.564,258.013 186.457,260.522 185.479 C 262.604 184.667,263.925 184.337,265.979 184.114 C 267.640 183.934,268.333 183.950,270.860 184.227 M153.305 193.460 C 153.305 196.723,147.410 199.895,144.318 198.296 C 143.312 197.775,143.402 197.569,145.118 196.469 C 149.676 193.548,153.305 192.215,153.305 193.460 M267.314 196.594 C 266.847 196.769,265.542 197.362,264.415 197.911 C 263.289 198.459,262.033 198.909,261.626 198.911 C 257.359 198.923,257.354 199.230,261.548 203.346 C 265.853 207.570,266.253 208.258,266.156 211.269 C 266.028 215.261,264.852 215.556,261.834 212.353 L 259.871 210.270 258.844 210.546 C 258.015 210.770,257.749 210.985,257.465 211.665 C 257.117 212.497,257.098 212.506,255.956 212.354 C 254.175 212.118,254.082 212.337,254.148 216.624 C 254.218 221.225,254.365 221.057,250.127 221.225 C 246.601 221.364,246.348 221.458,246.527 222.564 C 246.702 223.637,246.240 224.218,244.631 224.955 C 243.898 225.290,243.299 225.657,243.299 225.770 C 243.299 225.883,242.660 226.269,241.879 226.627 C 240.890 227.081,240.273 227.561,239.844 228.208 C 239.506 228.719,238.495 229.616,237.596 230.202 L 235.963 231.266 236.092 232.687 C 236.640 238.732,241.724 240.175,249.700 236.550 C 251.442 235.758,252.024 235.017,252.876 232.505 C 253.825 229.703,255.369 227.652,256.160 228.141 C 256.518 228.363,256.445 230.247,256.034 231.413 C 255.468 233.017,255.551 233.734,256.337 234.037 C 266.462 237.935,287.037 211.293,282.952 199.576 C 282.465 198.181,282.394 198.172,281.308 199.374 C 279.500 201.375,279.340 201.834,278.823 206.486 C 277.712 216.495,273.851 222.247,266.889 224.267 C 263.205 225.336,263.326 224.573,267.314 221.570 C 275.334 215.532,277.571 208.865,273.954 201.784 C 271.559 197.097,269.745 195.679,267.314 196.594 M238.933 202.052 C 236.499 203.352,235.450 204.804,234.449 208.257 C 233.494 211.553,233.577 212.259,235.040 213.310 C 236.444 214.319,236.898 215.486,236.640 217.428 L 236.482 218.615 237.162 218.448 C 239.023 217.990,242.378 215.137,242.682 213.754 C 242.767 213.368,242.656 212.244,242.435 211.256 C 242.215 210.269,241.959 207.910,241.867 206.016 C 241.649 201.547,241.147 200.869,238.933 202.052 M66.313 247.935 C 64.483 248.451,63.487 253.605,64.542 257.097 C 64.934 258.396,65.251 258.549,69.308 259.406 C 70.937 259.750,72.955 260.278,73.794 260.580 C 75.233 261.097,75.671 261.127,81.625 261.116 L 87.932 261.104 90.038 260.333 C 92.055 259.595,92.289 259.563,95.617 259.586 C 105.485 259.651,107.859 258.089,101.217 255.899 C 98.205 254.906,89.906 251.850,87.185 250.732 C 81.281 248.306,76.860 247.579,74.278 248.609 C 72.664 249.253,72.431 249.249,70.153 248.536 C 67.654 247.755,67.203 247.684,66.313 247.935 M82.038 250.363 C 84.825 250.954,87.066 252.790,84.946 252.746 C 84.587 252.738,82.656 252.145,80.655 251.427 L 77.016 250.122 78.884 250.106 C 79.912 250.098,81.331 250.214,82.038 250.363 M69.557 264.339 C 69.927 264.904,69.903 264.949,68.632 266.056 C 63.213 270.775,62.211 274.256,64.742 279.580 C 66.387 283.041,67.571 283.475,73.305 282.719 C 78.807 281.994,87.699 278.576,95.096 274.344 C 97.249 273.111,100.755 271.680,101.620 271.680 C 101.870 271.680,103.295 270.779,104.787 269.679 L 107.499 267.677 103.780 267.528 C 100.433 267.394,99.757 267.289,97.029 266.475 C 92.301 265.064,83.882 265.092,80.776 266.527 C 79.589 267.076,78.239 266.960,75.903 266.107 C 74.796 265.703,73.721 265.371,73.513 265.369 C 73.305 265.367,72.245 265.004,71.156 264.562 C 69.209 263.772,69.183 263.769,69.557 264.339 M106.068 269.481 L 103.586 271.375 104.683 271.499 C 106.203 271.670,106.671 272.173,106.854 273.827 C 107.399 278.757,108.321 280.247,111.246 280.922 C 114.805 281.743,116.619 279.574,116.381 274.781 C 116.029 267.716,111.460 265.367,106.068 269.481 M87.568 270.146 C 86.117 270.809,82.210 271.748,81.401 271.628 C 79.819 271.393,85.595 269.546,87.932 269.539 L 88.902 269.536 87.568 270.146 M91.086 280.119 C 90.285 280.604,88.445 281.515,86.997 282.143 L 84.364 283.284 85.857 283.703 C 89.034 284.594,89.329 285.640,87.083 288.053 C 85.118 290.165,85.104 290.743,87.010 290.981 C 90.066 291.363,92.786 290.239,93.807 288.173 C 94.567 286.635,94.868 281.629,94.270 280.472 C 93.504 278.992,93.033 278.940,91.086 280.119 M72.681 285.324 C 73.636 286.929,75.254 288.333,76.425 288.573 L 77.666 288.827 76.856 288.204 C 76.411 287.862,75.436 287.006,74.690 286.301 C 73.464 285.144,72.211 284.535,72.681 285.324 " stroke="none" fill="#a26a57" fill-rule="evenodd"></path><path id="path1" d="M135.061 79.501 C 135.900 79.548,137.210 79.548,137.972 79.500 C 138.734 79.452,138.047 79.413,136.446 79.413 C 134.845 79.414,134.222 79.453,135.061 79.501 M128.502 79.735 C 128.802 79.792,129.294 79.792,129.594 79.735 C 129.894 79.677,129.648 79.629,129.048 79.629 C 128.448 79.629,128.202 79.677,128.502 79.735 M143.302 79.735 C 143.604 79.793,144.040 79.791,144.272 79.730 C 144.504 79.669,144.257 79.622,143.723 79.625 C 143.190 79.627,143.000 79.677,143.302 79.735 M100.427 87.687 C 100.262 87.885,100.013 87.978,99.874 87.892 C 99.728 87.801,99.694 87.853,99.795 88.016 C 100.044 88.419,100.266 88.363,100.611 87.811 C 100.966 87.242,100.857 87.168,100.427 87.687 M99.309 89.181 C 99.309 89.478,99.403 89.662,99.519 89.590 C 99.634 89.519,99.669 89.400,99.595 89.327 C 99.522 89.253,99.631 89.069,99.838 88.918 C 100.168 88.676,100.159 88.642,99.762 88.642 C 99.455 88.642,99.309 88.817,99.309 89.181 M98.040 90.701 C 97.538 91.593,97.793 92.022,98.416 91.337 C 98.520 91.222,98.455 91.216,98.271 91.323 C 98.040 91.456,97.974 91.412,98.058 91.180 C 98.126 90.995,98.291 90.866,98.425 90.894 C 98.559 90.922,98.655 90.758,98.637 90.530 C 98.620 90.302,98.750 90.145,98.926 90.182 C 99.103 90.219,99.179 90.137,99.094 90.000 C 98.826 89.567,98.588 89.725,98.040 90.701 M177.989 130.190 C 178.291 130.248,178.728 130.246,178.960 130.185 C 179.192 130.124,178.945 130.077,178.411 130.079 C 177.878 130.082,177.688 130.132,177.989 130.190 M200.380 137.247 C 200.718 138.751,200.202 167.682,199.770 171.498 C 197.901 187.976,192.497 201.498,183.385 212.492 C 182.445 213.626,181.095 215.264,180.385 216.131 C 179.674 216.998,178.207 218.541,177.124 219.560 C 175.185 221.384,173.606 222.680,165.191 229.359 C 154.156 238.117,151.580 242.519,153.666 249.051 C 154.708 252.315,154.535 252.686,149.683 257.567 C 141.333 265.966,136.882 267.328,128.927 263.917 C 127.592 263.345,124.313 262.145,121.638 261.249 C 116.100 259.394,113.871 258.356,112.310 256.904 C 111.093 255.772,108.457 254.404,106.610 253.945 C 105.943 253.780,104.091 252.940,102.494 252.080 C 100.897 251.219,97.240 249.331,94.368 247.883 C 89.175 245.267,88.733 245.097,79.837 242.310 C 74.982 240.789,73.471 238.963,74.749 236.158 C 75.568 234.362,84.474 233.089,87.010 234.406 C 87.580 234.702,88.422 234.809,90.173 234.809 C 95.749 234.809,99.848 232.505,102.473 227.896 C 102.884 227.174,102.883 227.173,102.444 227.772 C 100.210 230.820,97.474 232.166,93.633 232.107 L 91.813 232.079 93.343 231.881 C 97.501 231.341,100.727 229.481,102.662 226.509 C 103.072 225.879,103.517 225.432,103.651 225.515 C 103.786 225.598,103.824 225.550,103.736 225.408 C 103.525 225.067,103.811 224.344,104.088 224.515 C 104.208 224.589,104.306 224.534,104.306 224.393 C 104.306 224.251,104.196 224.136,104.063 224.136 C 103.930 224.136,103.820 223.989,103.820 223.810 C 103.820 221.940,99.937 222.215,97.425 224.262 C 93.701 227.296,89.995 227.585,84.690 225.258 C 77.590 222.144,75.697 222.157,72.807 225.342 C 71.110 227.212,68.527 228.663,66.624 228.816 C 66.077 228.859,66.749 229.451,69.072 230.973 C 69.906 231.519,70.588 232.042,70.588 232.136 C 70.588 233.521,67.001 245.970,66.356 246.824 C 65.815 247.540,65.901 247.667,66.730 247.378 C 67.840 246.991,69.960 247.293,71.189 248.013 C 72.423 248.736,72.777 248.771,73.760 248.262 C 76.368 246.913,81.348 247.548,87.326 249.992 C 88.460 250.456,91.298 251.475,93.633 252.257 C 106.577 256.591,112.302 259.381,113.667 262.020 C 114.177 263.007,113.901 263.379,110.995 265.625 L 108.652 267.435 110.433 267.584 C 114.637 267.936,116.130 269.743,116.381 274.781 C 116.619 279.574,114.805 281.743,111.246 280.922 C 108.321 280.247,107.399 278.757,106.854 273.827 C 106.603 271.556,104.402 270.577,102.608 271.939 C 99.334 274.422,96.378 276.591,94.670 277.761 C 92.745 279.081,92.696 279.137,93.264 279.396 C 94.785 280.089,95.121 285.514,93.807 288.173 C 92.786 290.239,90.066 291.363,87.010 290.981 C 85.104 290.743,85.118 290.165,87.083 288.053 C 89.339 285.628,89.099 284.761,85.878 283.706 C 84.247 283.172,84.053 283.155,83.259 283.487 C 81.821 284.088,78.362 284.762,75.829 284.935 L 73.429 285.099 74.737 286.342 C 75.457 287.025,76.417 287.869,76.870 288.217 L 77.694 288.849 76.481 288.572 C 75.814 288.420,75.061 288.132,74.808 287.932 C 74.555 287.732,74.700 287.978,75.129 288.478 C 78.985 292.969,80.857 297.358,81.259 302.850 C 81.763 309.739,82.676 314.615,83.463 314.615 C 83.708 314.615,84.193 314.900,84.541 315.248 C 85.280 315.987,85.775 315.948,88.270 314.950 C 89.766 314.351,89.873 314.341,90.651 314.712 C 91.657 315.191,92.510 315.201,94.303 314.752 C 95.068 314.561,96.782 314.303,98.111 314.180 L 100.528 313.954 101.871 314.862 C 105.098 317.045,105.629 317.147,108.793 316.192 C 110.525 315.669,111.578 315.517,113.887 315.455 C 120.080 315.288,125.534 313.922,130.836 311.212 C 132.953 310.130,135.364 309.035,136.193 308.779 C 138.270 308.137,139.192 307.452,140.346 305.692 C 142.198 302.867,143.054 302.401,144.418 303.474 C 145.539 304.356,144.944 308.147,143.221 311.110 C 142.759 311.904,142.011 313.329,141.558 314.277 C 140.640 316.200,140.217 316.607,138.074 317.626 L 136.588 318.333 136.716 319.445 C 136.836 320.486,136.820 320.527,136.463 320.087 C 136.254 319.828,136.082 319.419,136.082 319.177 C 136.082 318.613,136.415 318.507,132.520 320.306 C 130.652 321.168,128.425 322.031,127.570 322.223 C 126.715 322.416,124.979 322.970,123.711 323.455 C 122.444 323.939,120.936 324.507,120.360 324.717 C 119.727 324.947,119.233 325.308,119.111 325.630 C 118.972 325.994,118.344 326.389,117.125 326.878 L 115.343 327.592 122.741 327.749 C 132.002 327.945,141.895 328.569,142.948 329.022 C 145.122 329.959,146.490 332.499,148.187 338.751 C 151.524 351.048,157.620 364.100,161.118 366.439 L 162.258 367.202 167.060 365.016 C 179.850 359.194,203.855 349.251,209.703 347.353 C 237.976 338.175,264.550 321.882,281.255 303.485 C 289.355 294.563,290.895 290.233,287.094 287.069 C 286.462 286.543,285.549 285.768,285.063 285.347 L 284.181 284.582 284.090 281.894 C 283.992 279.043,284.293 274.231,284.918 268.648 C 285.292 265.307,285.288 265.166,284.676 260.036 C 283.144 247.177,282.480 236.442,282.646 227.181 C 282.750 221.373,282.729 220.932,282.374 221.469 C 277.587 228.707,267.635 235.907,257.394 239.540 C 255.608 240.174,253.097 241.125,251.815 241.653 C 245.424 244.285,242.416 244.893,240.021 244.038 C 239.222 243.753,237.893 243.353,237.066 243.150 C 234.169 242.437,231.893 239.714,232.816 238.065 C 232.992 237.751,233.074 237.876,233.197 238.644 C 233.463 240.310,235.075 241.744,237.199 242.203 C 237.647 242.299,238.514 242.600,239.127 242.871 C 241.406 243.879,245.923 243.192,250.576 241.128 C 251.710 240.625,254.050 239.746,255.777 239.174 C 268.424 234.984,281.668 223.901,283.685 215.818 C 283.991 214.589,284.518 213.038,284.855 212.371 C 289.188 203.793,286.098 187.529,279.274 183.000 C 274.628 179.916,266.670 178.953,260.359 180.712 C 258.936 181.109,258.480 181.136,257.126 180.908 C 253.655 180.322,249.152 182.032,244.633 185.652 C 243.453 186.597,243.462 186.579,244.997 184.975 C 248.583 181.225,253.326 179.318,257.424 179.978 C 258.233 180.108,259.052 180.127,259.245 180.019 C 259.593 179.824,254.903 178.951,251.970 178.664 C 243.170 177.804,232.844 185.243,227.653 196.182 C 227.051 197.451,227.462 197.502,223.097 195.612 C 221.067 194.733,219.046 193.863,218.607 193.679 L 217.808 193.345 218.196 192.596 C 218.742 191.540,219.267 186.946,219.443 181.686 C 220.108 161.844,213.664 145.531,202.028 137.596 L 200.175 136.333 200.380 137.247 M127.050 138.437 C 127.351 138.495,127.788 138.493,128.020 138.432 C 128.252 138.372,128.005 138.324,127.471 138.327 C 126.938 138.329,126.748 138.379,127.050 138.437 M122.077 139.410 C 122.446 139.466,122.992 139.464,123.290 139.407 C 123.589 139.349,123.287 139.303,122.620 139.305 C 121.953 139.307,121.709 139.354,122.077 139.410 M119.287 140.135 C 119.589 140.193,120.026 140.191,120.258 140.130 C 120.489 140.070,120.243 140.022,119.709 140.025 C 119.175 140.027,118.986 140.077,119.287 140.135 M143.238 141.898 C 142.594 142.027,142.570 142.060,143.030 142.187 C 143.315 142.266,143.694 142.240,143.872 142.130 C 144.348 141.836,144.066 141.732,143.238 141.898 M108.914 142.404 C 108.914 142.545,108.778 142.582,108.611 142.486 C 108.445 142.390,108.390 142.402,108.491 142.513 C 108.591 142.623,108.492 142.914,108.270 143.159 C 107.884 143.586,107.900 143.592,108.688 143.318 C 109.139 143.160,109.370 142.986,109.201 142.930 C 108.966 142.851,108.960 142.748,109.177 142.487 C 109.380 142.241,109.383 142.147,109.187 142.147 C 109.037 142.147,108.914 142.262,108.914 142.404 M104.669 143.935 C 98.323 146.006,95.483 150.472,97.513 155.191 C 98.446 157.358,102.678 160.277,105.555 160.737 C 107.091 160.983,109.951 164.998,110.880 168.213 C 112.007 172.114,112.578 173.070,114.305 173.951 C 114.835 174.221,115.303 174.408,115.345 174.365 C 115.651 174.054,117.442 170.095,117.880 168.760 C 118.521 166.808,118.451 166.518,117.293 166.300 C 116.234 166.102,114.134 165.228,114.304 165.057 C 114.371 164.990,114.721 165.047,115.082 165.184 C 116.232 165.622,116.293 165.455,115.258 164.704 C 114.010 163.801,113.951 163.575,115.146 164.280 C 116.066 164.823,116.083 164.600,115.197 163.611 C 114.781 163.146,113.900 161.310,114.094 161.310 C 114.144 161.310,114.489 161.748,114.861 162.285 C 115.727 163.535,115.815 163.415,115.205 161.811 C 114.588 160.188,114.685 160.092,115.660 161.360 C 116.460 162.402,116.679 162.375,116.070 161.310 C 115.517 160.342,115.650 160.195,116.417 160.929 L 117.127 161.609 117.908 160.720 C 120.507 157.760,129.691 159.068,144.639 164.526 C 148.860 166.067,148.815 166.213,144.545 164.836 C 137.759 162.647,128.023 160.166,123.920 159.580 C 121.167 159.186,119.489 159.523,118.214 160.725 L 117.328 161.561 117.875 162.144 C 118.760 163.086,128.101 165.749,138.751 168.095 C 145.518 169.586,150.856 171.223,149.909 171.516 C 149.576 171.620,146.287 171.878,142.602 172.091 C 138.916 172.304,134.560 172.697,132.921 172.964 C 128.982 173.607,124.714 173.937,121.286 173.863 C 119.052 173.814,118.207 173.897,117.046 174.278 L 115.595 174.753 117.167 175.118 C 119.557 175.674,129.443 175.634,133.314 175.052 C 137.247 174.461,137.638 174.516,137.734 175.676 C 138.120 180.334,131.157 181.507,123.801 178.021 C 121.608 176.982,116.831 176.341,116.174 176.998 C 115.851 177.320,117.087 179.018,117.644 179.018 C 117.900 179.018,118.851 179.678,119.758 180.485 C 125.603 185.687,135.859 185.067,145.300 178.943 C 150.176 175.780,152.181 175.184,156.633 175.577 C 162.518 176.097,163.000 175.964,165.610 173.104 C 169.157 169.215,167.568 166.859,159.976 164.749 C 151.068 162.274,126.506 158.117,118.617 157.749 C 114.190 157.543,113.845 156.892,115.986 152.778 C 117.191 150.462,119.730 148.696,121.856 148.696 C 122.043 148.696,122.332 148.532,122.498 148.332 C 122.665 148.132,123.087 147.956,123.438 147.940 C 123.909 147.920,123.955 147.881,123.615 147.794 C 123.244 147.699,123.221 147.634,123.494 147.455 C 123.913 147.181,122.351 147.368,119.830 147.892 C 117.766 148.322,115.770 149.141,114.506 150.078 L 113.645 150.717 114.372 149.920 L 115.100 149.122 113.541 150.061 C 112.683 150.578,111.379 151.574,110.642 152.274 C 109.146 153.697,108.607 153.818,106.731 153.154 C 105.884 152.854,105.097 152.799,103.214 152.910 C 100.646 153.060,100.286 152.958,99.736 151.926 C 99.256 151.025,99.401 148.943,100.038 147.574 C 100.661 146.235,101.347 145.516,101.021 146.543 C 100.860 147.053,100.953 147.016,101.830 146.223 C 102.892 145.263,104.164 144.511,104.372 144.719 C 104.442 144.789,105.029 144.514,105.676 144.108 C 107.076 143.228,106.919 143.201,104.669 143.935 M73.123 144.107 C 73.046 144.231,73.127 144.386,73.302 144.450 C 73.611 144.564,75.790 145.322,76.774 145.659 L 77.259 145.825 76.774 145.415 C 75.830 144.618,73.355 143.731,73.123 144.107 M77.380 146.932 C 79.576 148.490,81.031 150.459,84.139 156.084 C 85.809 159.105,85.827 159.279,84.342 158.062 C 83.295 157.204,82.783 156.947,83.081 157.429 C 83.272 157.738,83.351 157.751,81.504 157.162 C 80.366 156.798,79.184 156.645,77.259 156.610 L 74.591 156.562 72.712 155.493 C 71.679 154.904,70.297 154.017,69.641 153.520 C 68.272 152.484,68.163 152.516,68.163 153.952 C 68.163 154.871,68.229 155.003,68.692 155.003 C 69.539 155.003,71.133 155.886,72.131 156.908 C 73.884 158.704,73.421 161.018,70.954 162.790 C 70.357 163.219,69.801 163.785,69.717 164.048 C 69.596 164.429,69.521 164.459,69.353 164.192 C 68.998 163.633,69.125 164.298,69.497 164.948 C 69.687 165.282,69.849 166.101,69.856 166.768 C 69.874 168.529,70.847 169.329,71.857 168.415 C 72.946 167.429,83.033 170.258,85.185 172.153 C 85.548 172.472,85.556 172.628,85.265 173.595 C 84.846 174.989,85.195 174.904,86.397 173.319 C 89.755 168.895,87.866 158.791,82.303 151.415 C 79.876 148.198,78.514 146.825,77.573 146.650 L 76.774 146.501 77.380 146.932 M124.318 147.726 C 124.231 147.866,124.456 147.967,124.849 147.965 C 125.378 147.962,125.449 147.908,125.167 147.726 C 124.701 147.425,124.504 147.425,124.318 147.726 M136.204 149.181 C 135.647 149.323,135.600 149.373,136.002 149.395 C 136.291 149.411,136.687 149.485,136.880 149.559 C 137.074 149.633,137.298 149.524,137.378 149.317 C 137.534 148.909,137.356 148.888,136.204 149.181 M138.629 149.424 C 138.896 149.539,139.278 149.632,139.478 149.632 C 139.708 149.632,139.663 149.555,139.357 149.424 C 139.090 149.309,138.708 149.215,138.508 149.215 C 138.279 149.215,138.324 149.292,138.629 149.424 M160.539 151.402 C 160.707 151.622,160.759 151.850,160.653 151.908 C 160.547 151.965,160.590 151.982,160.748 151.945 C 160.907 151.907,161.083 152.007,161.140 152.166 C 161.197 152.326,161.313 152.393,161.397 152.315 C 161.481 152.238,161.254 151.911,160.892 151.588 C 160.529 151.265,160.371 151.181,160.539 151.402 M159.854 152.168 C 159.854 152.210,160.209 152.565,160.643 152.956 L 161.431 153.669 160.719 152.881 C 160.055 152.146,159.854 151.981,159.854 152.168 M159.213 155.124 C 159.251 155.775,159.612 155.982,159.612 155.353 C 159.612 155.115,159.724 155.042,159.915 155.157 C 160.121 155.280,160.112 155.207,159.885 154.928 C 159.415 154.348,159.172 154.419,159.213 155.124 M68.229 157.914 C 68.229 158.514,68.276 158.760,68.334 158.460 C 68.392 158.159,68.392 157.668,68.334 157.368 C 68.276 157.068,68.229 157.314,68.229 157.914 M75.197 164.330 C 80.595 165.149,84.731 167.216,86.209 169.834 C 86.545 170.428,86.293 170.239,85.282 169.136 C 82.444 166.041,75.880 163.966,71.874 164.897 C 70.683 165.174,70.431 165.039,70.989 164.422 C 71.474 163.887,72.171 163.872,75.197 164.330 M71.704 172.429 C 71.626 172.556,72.001 173.318,72.539 174.123 C 73.500 175.563,73.514 175.613,73.354 177.173 C 73.219 178.491,73.284 179.006,73.738 180.221 L 74.285 181.684 75.530 181.023 C 76.214 180.659,77.665 179.457,78.755 178.352 C 80.683 176.395,81.881 175.625,83.012 175.618 C 83.317 175.616,83.730 175.499,83.930 175.359 C 84.457 174.988,78.879 175.704,75.170 176.483 C 74.582 176.606,74.527 176.544,74.401 175.609 C 74.146 173.701,72.278 171.500,71.704 172.429 M273.295 181.533 C 275.833 182.360,278.039 183.822,278.857 185.218 C 279.772 186.780,279.774 186.779,274.032 186.739 C 264.292 186.670,257.087 189.307,248.842 195.957 C 246.718 197.670,246.435 197.726,245.055 196.712 C 242.059 194.509,241.530 192.746,242.978 189.789 C 244.859 185.948,251.193 181.704,254.700 181.934 C 258.752 182.200,260.848 182.050,262.341 181.387 C 264.441 180.455,270.224 180.532,273.295 181.533 M269.818 196.571 C 271.643 197.333,274.942 202.679,275.572 205.892 C 276.572 211.000,273.430 216.965,267.314 221.570 C 263.326 224.573,263.205 225.336,266.889 224.267 C 273.851 222.247,277.712 216.495,278.823 206.486 C 279.340 201.834,279.500 201.375,281.308 199.374 C 282.394 198.172,282.465 198.181,282.952 199.576 C 287.037 211.293,266.462 237.935,256.337 234.037 C 255.551 233.734,255.468 233.017,256.034 231.413 C 256.445 230.247,256.518 228.363,256.160 228.141 C 255.369 227.652,253.825 229.703,252.876 232.505 C 252.024 235.017,251.442 235.758,249.700 236.550 C 241.724 240.175,236.640 238.732,236.092 232.687 L 235.963 231.266 237.596 230.202 C 238.495 229.616,239.506 228.719,239.844 228.208 C 240.273 227.561,240.890 227.081,241.879 226.627 C 242.660 226.269,243.299 225.883,243.299 225.770 C 243.299 225.657,243.898 225.290,244.631 224.955 C 246.240 224.218,246.702 223.637,246.527 222.564 C 246.348 221.458,246.601 221.364,250.127 221.225 C 254.365 221.057,254.218 221.225,254.148 216.624 C 254.082 212.337,254.175 212.118,255.956 212.354 C 257.098 212.506,257.117 212.497,257.465 211.665 C 257.749 210.985,258.015 210.770,258.844 210.546 L 259.871 210.270 261.834 212.353 C 264.852 215.556,266.028 215.261,266.156 211.269 C 266.253 208.258,265.853 207.570,261.548 203.346 C 257.354 199.230,257.359 198.923,261.626 198.911 C 262.033 198.909,263.289 198.459,264.415 197.911 C 268.016 196.157,268.526 196.031,269.818 196.571 M241.248 202.074 C 241.623 202.488,241.727 203.155,241.867 206.016 C 241.959 207.910,242.215 210.269,242.435 211.256 C 242.656 212.244,242.767 213.368,242.682 213.754 C 242.378 215.137,239.023 217.990,237.162 218.448 L 236.482 218.615 236.640 217.428 C 236.898 215.486,236.444 214.319,235.040 213.310 C 233.920 212.506,233.839 212.376,233.839 211.405 C 233.839 206.201,239.047 199.642,241.248 202.074 M57.793 217.223 C 57.796 217.756,57.845 217.946,57.904 217.644 C 57.962 217.342,57.959 216.906,57.899 216.674 C 57.838 216.442,57.790 216.689,57.793 217.223 M104.922 220.881 C 104.830 221.493,104.604 222.421,104.420 222.943 C 104.235 223.466,104.172 223.893,104.278 223.893 C 104.384 223.893,104.598 223.471,104.753 222.954 C 105.093 221.817,105.391 219.770,105.215 219.770 C 105.145 219.770,105.013 220.270,104.922 220.881 M82.068 225.431 C 86.187 227.400,86.535 228.150,83.594 228.724 C 77.673 229.881,77.516 229.878,75.258 228.586 C 73.899 227.809,73.919 227.260,75.353 225.986 C 77.864 223.754,78.456 223.705,82.068 225.431 M62.816 225.894 C 63.821 226.965,64.039 227.158,64.039 226.976 C 64.039 226.937,63.520 226.418,62.887 225.824 L 61.734 224.742 62.816 225.894 M68.526 248.040 C 70.660 248.641,71.015 248.670,69.982 248.158 C 69.448 247.894,68.629 247.682,68.163 247.688 C 67.356 247.698,67.374 247.715,68.526 248.040 M76.349 248.079 C 76.649 248.137,77.141 248.137,77.441 248.079 C 77.741 248.021,77.495 247.974,76.895 247.974 C 76.295 247.974,76.049 248.021,76.349 248.079 M103.976 257.210 C 104.688 257.701,105.155 258.205,105.155 258.484 C 105.155 259.095,100.622 259.619,95.617 259.586 C 92.289 259.563,92.055 259.595,90.038 260.333 L 87.932 261.104 81.625 261.116 C 75.671 261.127,75.233 261.097,73.794 260.580 C 72.955 260.278,70.937 259.750,69.308 259.406 C 67.679 259.062,65.986 258.630,65.545 258.446 L 64.745 258.111 65.368 259.256 C 67.036 262.321,69.188 264.060,72.529 265.044 C 73.263 265.260,74.777 265.752,75.895 266.139 C 78.278 266.963,79.605 267.069,80.776 266.527 C 83.974 265.049,92.203 265.068,97.510 266.565 C 100.823 267.499,101.209 267.556,104.256 267.556 C 106.620 267.556,107.442 267.631,107.316 267.834 C 107.222 267.986,108.460 267.055,110.068 265.764 C 113.834 262.742,113.948 262.278,111.393 260.403 C 109.517 259.026,103.942 256.398,102.899 256.398 C 102.843 256.398,103.328 256.763,103.976 257.210 M147.990 268.001 C 147.859 268.245,147.562 268.600,147.329 268.789 C 147.067 269.002,147.125 268.832,147.483 268.344 C 148.120 267.474,148.359 267.312,147.990 268.001 M101.031 271.797 C 99.068 272.327,97.288 273.093,95.041 274.377 C 85.669 279.731,77.210 282.581,69.012 283.148 L 68.041 283.215 69.497 283.694 C 73.889 285.138,82.074 283.904,88.059 280.895 C 91.463 279.183,103.391 271.307,102.356 271.453 C 102.294 271.462,101.698 271.617,101.031 271.797 M64.281 279.050 C 64.281 279.310,65.003 280.655,65.143 280.655 C 65.210 280.655,65.084 280.300,64.863 279.867 C 64.413 278.981,64.281 278.797,64.281 279.050 M72.044 284.870 C 72.044 284.921,72.228 285.112,72.454 285.295 C 72.680 285.478,72.788 285.501,72.695 285.345 C 72.602 285.190,72.663 285.007,72.831 284.940 C 72.998 284.872,72.890 284.808,72.589 284.798 C 72.289 284.787,72.044 284.820,72.044 284.870 " stroke="none" fill="#653f31" fill-rule="evenodd"></path><path id="path2" d="M177.441 0.743 C 175.457 1.410,174.651 1.912,174.651 2.484 C 174.651 2.750,184.689 7.699,187.561 8.849 L 189.744 9.723 194.751 9.340 C 197.504 9.130,202.464 8.627,205.772 8.224 L 211.787 7.491 217.415 8.373 C 220.511 8.858,223.277 9.309,223.561 9.376 C 224.063 9.495,224.078 9.616,224.080 13.542 C 224.081 15.767,224.175 18.037,224.290 18.588 L 224.500 19.590 231.840 17.548 L 239.181 15.507 241.058 16.934 L 242.935 18.362 249.119 18.538 C 252.520 18.635,255.347 18.760,255.402 18.814 C 255.483 18.896,257.829 27.495,258.423 29.890 L 258.587 30.551 261.728 28.237 L 264.869 25.923 270.276 26.586 C 273.249 26.950,275.901 27.326,276.167 27.422 C 276.576 27.569,279.948 33.475,279.623 33.475 C 279.570 33.475,278.740 33.207,277.779 32.880 L 276.030 32.286 270.090 34.856 C 266.823 36.270,264.180 37.449,264.216 37.477 C 264.252 37.505,266.028 37.331,268.163 37.092 C 270.946 36.780,273.993 36.653,278.935 36.642 L 285.827 36.628 288.638 37.457 C 290.184 37.912,291.645 38.322,291.885 38.366 C 292.232 38.431,292.564 37.884,293.522 35.672 C 294.959 32.354,294.938 32.670,293.806 31.440 C 293.302 30.892,292.112 29.351,291.162 28.017 C 287.417 22.755,285.763 21.580,280.898 20.723 C 278.016 20.216,276.363 19.675,273.135 18.181 C 271.734 17.533,269.729 16.775,268.679 16.497 C 266.102 15.815,265.580 15.507,264.539 14.058 C 263.001 11.917,261.543 11.544,253.244 11.165 C 245.381 10.806,244.306 10.435,243.042 7.648 C 241.715 4.723,241.000 4.531,231.292 4.506 L 224.257 4.488 221.710 3.550 C 214.304 0.824,208.295 0.609,198.059 2.701 C 193.135 3.707,191.802 3.712,190.266 2.726 C 186.054 0.023,181.624 -0.662,177.441 0.743 M160.097 3.984 C 158.273 4.549,153.000 6.803,150.271 8.184 C 148.200 9.233,146.143 10.853,144.405 12.803 C 142.040 15.456,140.734 15.885,137.251 15.150 C 134.255 14.519,132.486 15.244,129.068 18.506 C 123.300 24.009,121.052 25.010,118.321 23.288 C 115.393 21.443,114.596 21.305,111.269 22.062 C 108.641 22.661,108.630 22.670,108.097 24.530 C 107.022 28.281,102.846 31.448,98.175 32.056 C 93.342 32.686,93.708 32.501,91.533 35.411 C 90.373 36.962,88.540 38.428,85.495 40.239 L 84.115 41.060 84.269 43.150 C 84.411 45.084,84.367 45.393,83.673 47.301 C 82.393 50.826,81.503 53.650,81.347 54.681 C 81.265 55.225,81.007 55.888,80.773 56.155 C 80.259 56.742,79.685 57.877,79.484 58.702 C 79.392 59.080,78.351 60.132,76.722 61.492 C 1.685 124.136,-14.173 234.184,40.107 315.585 C 65.729 354.008,103.249 381.276,148.368 394.263 L 149.616 394.622 150.155 393.127 C 154.786 380.279,171.264 364.577,186.416 358.573 C 199.152 353.527,213.132 354.114,221.767 360.056 L 223.401 361.180 223.542 360.517 C 225.535 351.160,232.264 342.981,243.604 336.134 C 248.576 333.131,256.154 329.722,257.247 329.997 C 258.865 330.403,264.657 336.897,279.060 354.457 C 283.534 359.911,283.773 360.111,284.812 359.269 C 285.573 358.654,285.613 359.197,283.582 342.753 C 281.205 323.516,281.049 322.513,280.139 320.569 C 279.141 318.436,279.446 317.458,281.702 315.548 C 282.527 314.850,284.348 313.168,285.749 311.811 C 289.964 307.727,291.399 307.555,292.406 311.012 C 293.427 314.513,306.209 337.296,312.252 346.384 C 316.839 353.282,318.945 355.657,321.247 356.529 C 322.943 357.171,322.501 357.402,326.778 353.630 C 331.460 349.501,331.266 349.700,333.738 346.459 C 337.642 341.340,341.165 337.673,345.938 333.762 C 349.563 330.791,359.024 317.934,365.114 307.702 C 412.240 228.520,396.999 127.518,328.627 65.901 C 325.650 63.218,325.472 63.122,326.408 64.706 C 326.783 65.340,327.888 67.221,328.863 68.887 C 330.511 71.700,330.685 71.911,331.309 71.845 C 333.637 71.601,334.142 75.351,332.312 79.287 C 331.110 81.874,331.152 82.005,334.499 86.113 C 335.315 87.113,336.624 88.866,337.408 90.008 C 338.193 91.149,339.613 93.114,340.565 94.374 C 341.517 95.634,342.721 97.538,343.240 98.605 C 344.270 100.723,344.310 100.907,345.899 111.098 C 346.450 114.633,347.056 118.508,347.245 119.709 C 347.434 120.910,348.095 123.744,348.714 126.008 C 349.587 129.195,349.779 130.207,349.567 130.495 C 347.953 132.688,347.530 134.866,348.454 136.227 C 349.775 138.174,348.398 142.268,343.686 150.394 C 340.481 155.924,340.282 156.763,341.771 158.478 C 344.788 161.953,343.383 166.167,337.684 170.733 C 334.160 173.556,333.774 175.216,335.351 180.763 C 336.378 184.376,336.183 184.649,331.474 186.203 C 326.084 187.980,325.303 189.542,327.160 194.828 C 328.101 197.506,327.061 199.127,324.624 198.782 C 323.282 198.593,323.016 198.868,320.575 202.966 C 317.905 207.450,315.306 210.817,309.278 217.604 C 293.915 234.901,287.615 247.547,285.999 264.329 C 285.739 267.032,285.654 284.712,285.902 284.464 C 286.032 284.334,286.309 284.529,287.836 285.826 C 292.350 289.662,290.574 295.616,282.216 304.669 C 264.861 323.468,242.733 337.158,213.635 347.098 C 210.462 348.182,204.840 350.278,201.143 351.756 C 190.202 356.130,166.692 365.992,164.153 367.273 C 161.922 368.399,160.528 367.903,158.504 365.264 C 155.164 360.908,149.793 348.725,147.866 341.131 C 146.257 334.793,144.755 331.479,142.890 330.151 C 141.834 329.398,135.118 328.787,121.649 328.216 L 117.283 328.031 122.498 327.939 L 127.714 327.848 121.528 327.720 L 115.343 327.592 113.692 328.274 C 112.784 328.650,111.440 329.054,110.706 329.174 C 109.811 329.319,108.997 329.664,108.234 330.220 C 107.607 330.676,106.604 331.294,106.004 331.594 C 105.403 331.893,104.475 332.483,103.942 332.904 C 101.480 334.846,99.789 335.469,96.960 335.474 C 95.570 335.477,90.780 333.734,90.375 333.077 C 90.283 332.929,89.797 332.808,89.294 332.808 C 88.635 332.808,88.223 332.640,87.814 332.205 C 87.503 331.874,86.882 331.534,86.434 331.450 C 85.513 331.277,84.919 330.626,84.174 328.974 C 83.892 328.347,83.380 327.303,83.036 326.652 C 82.470 325.580,82.431 325.329,82.615 323.984 C 82.968 321.416,82.860 319.691,82.276 318.566 C 81.611 317.285,81.605 316.516,82.254 315.929 C 83.183 315.088,83.292 314.637,82.625 314.384 C 81.798 314.069,81.054 309.934,80.638 303.335 C 80.233 296.929,73.729 285.264,70.224 284.660 C 66.730 284.058,64.309 281.720,62.936 277.623 C 61.585 273.591,62.524 270.658,66.371 266.892 L 68.682 264.629 67.437 263.267 C 62.839 258.237,61.971 253.510,64.699 248.361 C 66.261 245.411,67.743 241.171,69.136 235.666 L 69.932 232.520 69.350 232.103 C 57.462 223.578,55.546 220.289,57.853 212.371 C 59.207 207.725,61.457 203.814,67.201 196.119 C 69.292 193.317,71.943 189.651,73.091 187.971 L 75.179 184.917 74.050 182.271 C 73.060 179.951,72.913 179.381,72.859 177.660 C 72.802 175.866,72.717 175.566,71.875 174.187 L 70.952 172.678 69.861 172.799 C 68.796 172.917,68.788 172.913,69.540 172.633 C 70.768 172.177,70.685 172.059,69.193 172.137 L 67.799 172.209 68.890 171.916 L 69.982 171.623 68.648 171.547 C 67.207 171.464,66.321 171.013,67.599 171.013 C 69.707 171.013,70.695 170.238,68.945 169.958 C 67.364 169.705,66.941 169.177,68.400 169.278 C 69.850 169.378,69.937 169.136,68.706 168.429 C 68.207 168.142,67.587 167.545,67.329 167.103 L 66.859 166.297 67.762 167.200 C 69.488 168.926,69.927 167.674,68.769 164.321 C 67.867 161.705,67.600 159.270,67.764 155.120 C 67.973 149.796,68.569 148.296,71.952 144.581 C 73.408 142.982,74.058 142.016,74.891 140.215 C 77.092 135.450,77.806 134.164,80.413 130.260 C 83.161 126.144,84.145 124.105,85.151 120.437 C 86.641 115.007,87.472 112.396,88.697 109.290 C 90.144 105.622,93.159 99.229,94.808 96.330 L 95.827 94.540 95.124 92.691 C 94.737 91.675,94.118 89.915,93.748 88.781 C 93.257 87.277,92.872 86.542,92.323 86.063 C 91.909 85.703,91.079 84.955,90.479 84.403 L 89.388 83.398 90.716 84.377 C 92.318 85.557,92.298 85.569,91.693 83.810 C 91.425 83.034,91.207 82.143,91.207 81.831 C 91.207 81.518,90.840 80.853,90.391 80.352 C 88.715 78.483,88.093 76.078,87.833 70.467 C 87.677 67.099,87.608 66.701,86.900 65.116 C 85.880 62.830,85.641 61.675,85.634 58.995 C 85.630 57.755,85.459 55.210,85.252 53.339 C 84.757 48.846,84.577 49.154,87.886 48.843 C 92.597 48.400,93.356 47.462,90.412 45.725 C 88.432 44.556,88.377 44.135,90.057 43.012 C 91.630 41.961,94.480 40.897,98.703 39.785 C 104.362 38.294,109.792 35.723,115.039 32.050 C 121.534 27.504,123.240 26.671,125.248 27.066 C 130.102 28.019,141.533 24.732,143.453 21.830 C 144.481 20.277,146.055 19.662,149.601 19.429 C 153.737 19.158,154.266 18.856,160.128 13.442 C 165.092 8.857,168.033 6.793,169.604 6.792 C 171.055 6.792,169.831 5.411,167.256 4.143 C 165.299 3.180,162.873 3.126,160.097 3.984 M182.175 19.334 C 182.177 19.440,182.531 19.925,182.963 20.412 L 183.748 21.297 185.437 20.497 L 187.126 19.698 185.437 19.542 C 184.508 19.456,183.393 19.331,182.959 19.264 C 182.526 19.196,182.173 19.228,182.175 19.334 M204.392 20.685 C 204.079 22.727,203.959 30.186,204.234 30.564 C 204.675 31.170,205.523 29.895,208.026 24.864 L 210.318 20.255 209.283 20.108 C 208.713 20.027,207.415 19.893,206.399 19.810 L 204.550 19.660 204.392 20.685 M188.357 22.722 L 187.144 23.580 189.060 23.433 C 190.114 23.353,191.479 23.282,192.092 23.277 L 193.208 23.266 191.809 22.685 C 189.671 21.797,189.663 21.797,188.357 22.722 M154.699 32.612 C 151.129 33.310,148.158 33.932,148.095 33.995 C 148.032 34.058,148.846 34.669,149.905 35.354 L 151.829 36.597 154.913 35.775 C 157.962 34.963,158.014 34.937,159.429 33.547 C 160.594 32.402,161.583 31.196,161.258 31.317 C 161.220 31.332,158.268 31.914,154.699 32.612 M113.638 43.582 C 113.914 45.592,114.251 48.318,114.251 48.532 C 114.251 48.656,114.797 48.757,115.464 48.757 L 116.677 48.757 116.677 47.180 C 116.677 46.313,116.740 45.603,116.818 45.603 C 116.895 45.603,119.248 45.883,122.046 46.225 C 128.560 47.021,128.635 46.987,124.306 45.176 C 121.072 43.823,120.364 43.619,117.768 43.292 C 116.167 43.089,114.555 42.863,114.184 42.788 C 113.526 42.654,113.514 42.672,113.638 43.582 M100.537 44.196 C 100.607 44.503,100.998 46.644,101.405 48.953 L 102.146 53.151 101.527 57.200 C 101.186 59.427,100.845 61.522,100.769 61.856 L 100.630 62.462 101.390 61.737 C 102.820 60.371,103.670 58.216,103.486 56.419 C 103.305 54.656,103.567 53.826,104.454 53.351 C 104.773 53.181,105.035 52.978,105.037 52.900 C 105.038 52.823,105.354 50.904,105.739 48.636 C 106.124 46.367,106.421 44.492,106.399 44.468 C 106.378 44.444,105.380 44.304,104.181 44.157 C 102.982 44.010,101.643 43.833,101.205 43.764 C 100.474 43.648,100.420 43.684,100.537 44.196 M303.911 47.483 C 304.479 48.537,305.952 49.485,307.019 49.484 C 307.609 49.483,307.449 49.320,305.830 48.271 C 303.773 46.939,303.573 46.857,303.911 47.483 M309.233 51.241 C 309.163 51.716,309.442 51.927,311.316 52.822 C 314.032 54.118,314.120 54.033,311.776 52.378 C 309.198 50.557,309.324 50.613,309.233 51.241 M163.597 56.724 C 163.105 58.813,162.647 60.631,162.578 60.764 C 162.286 61.337,163.336 60.066,165.629 57.072 L 168.086 53.865 167.063 53.600 C 166.500 53.454,165.692 53.243,165.266 53.131 L 164.491 52.927 163.597 56.724 M133.899 58.716 C 132.498 58.963,131.000 59.229,130.570 59.307 C 129.859 59.437,127.835 64.228,127.835 65.781 C 127.835 65.905,128.917 65.069,130.239 63.925 L 132.643 61.843 134.476 62.572 L 136.310 63.300 139.732 61.062 L 143.154 58.824 142.105 58.676 C 139.183 58.266,136.385 58.279,133.899 58.716 M247.423 62.132 C 244.955 63.997,242.848 65.609,242.742 65.714 C 242.636 65.819,244.459 65.585,246.793 65.195 L 251.037 64.485 252.993 66.064 L 254.948 67.643 257.189 66.704 C 258.422 66.188,261.504 64.894,264.039 63.829 L 268.648 61.892 269.297 60.360 C 269.654 59.518,269.927 58.811,269.903 58.790 C 269.880 58.768,267.649 59.238,264.945 59.832 L 260.030 60.913 256.334 59.916 C 254.301 59.367,252.474 58.878,252.274 58.829 C 252.074 58.781,249.891 60.267,247.423 62.132 M186.031 62.961 C 186.540 64.104,187.032 65.046,187.124 65.055 C 187.383 65.081,191.142 63.449,191.144 63.310 C 191.152 62.863,187.704 61.189,186.480 61.046 L 185.107 60.884 186.031 62.961 M132.141 79.492 C 132.441 79.550,132.932 79.550,133.232 79.492 C 133.532 79.434,133.287 79.387,132.686 79.387 C 132.086 79.387,131.841 79.434,132.141 79.492 M139.660 79.492 C 139.961 79.550,140.452 79.550,140.752 79.492 C 141.052 79.434,140.807 79.387,140.206 79.387 C 139.606 79.387,139.360 79.434,139.660 79.492 M307.156 85.565 C 304.087 87.399,304.176 87.292,305.133 87.999 L 305.839 88.521 307.946 86.225 C 309.105 84.963,310.015 83.930,309.969 83.931 C 309.923 83.932,308.657 84.667,307.156 85.565 M323.709 88.366 C 323.489 89.061,323.267 89.767,323.215 89.934 C 323.160 90.107,323.723 90.541,324.532 90.950 L 325.944 91.663 326.950 90.637 C 328.261 89.301,328.266 89.315,326.028 88.123 L 324.108 87.101 323.709 88.366 M96.723 92.872 C 96.393 93.430,96.382 93.552,96.664 93.552 C 96.853 93.552,96.948 93.456,96.876 93.339 C 96.803 93.222,96.878 92.965,97.042 92.767 C 97.206 92.570,97.292 92.359,97.232 92.300 C 97.173 92.241,96.944 92.498,96.723 92.872 M117.613 140.180 C 117.914 140.371,118.860 140.277,118.860 140.057 C 118.860 140.005,118.505 139.965,118.072 139.967 C 117.536 139.970,117.389 140.038,117.613 140.180 M206.549 141.419 C 207.071 141.953,207.551 142.389,207.618 142.389 C 207.685 142.389,207.313 141.953,206.792 141.419 C 206.271 140.885,205.790 140.449,205.723 140.449 C 205.657 140.449,206.028 140.885,206.549 141.419 M103.578 145.031 C 103.578 145.195,103.487 145.273,103.376 145.204 C 103.265 145.135,103.174 145.238,103.174 145.432 C 103.174 145.626,103.268 145.785,103.383 145.785 C 103.656 145.785,103.926 145.082,103.729 144.885 C 103.646 144.802,103.578 144.868,103.578 145.031 M79.068 148.514 C 80.073 149.585,80.291 149.778,80.291 149.596 C 80.291 149.557,79.773 149.038,79.139 148.443 L 77.987 147.362 79.068 148.514 M125.713 147.893 C 125.946 147.954,126.328 147.954,126.562 147.893 C 126.795 147.832,126.604 147.782,126.137 147.782 C 125.670 147.782,125.479 147.832,125.713 147.893 M103.639 152.745 C 103.872 152.806,104.254 152.806,104.488 152.745 C 104.721 152.684,104.530 152.634,104.063 152.634 C 103.596 152.634,103.405 152.684,103.639 152.745 M123.469 159.369 C 123.469 159.673,123.726 159.673,124.196 159.369 C 124.491 159.179,124.456 159.133,124.015 159.130 C 123.714 159.128,123.469 159.236,123.469 159.369 M117.418 161.284 C 117.230 161.636,117.270 161.818,117.592 162.061 C 117.942 162.326,117.963 162.324,117.719 162.049 C 117.517 161.821,117.501 161.584,117.667 161.273 C 117.799 161.026,117.852 160.825,117.785 160.825 C 117.719 160.825,117.553 161.032,117.418 161.284 M146.513 165.331 C 146.513 165.495,147.773 165.952,147.893 165.832 C 147.948 165.777,147.660 165.616,147.253 165.474 C 146.846 165.332,146.513 165.268,146.513 165.331 M84.294 168.102 C 84.535 168.369,84.774 168.587,84.825 168.587 C 84.876 168.587,84.800 168.369,84.657 168.102 C 84.515 167.835,84.275 167.617,84.126 167.617 C 83.977 167.617,84.052 167.835,84.294 168.102 M145.000 171.912 C 145.302 171.970,145.738 171.968,145.970 171.907 C 146.202 171.846,145.955 171.799,145.421 171.802 C 144.888 171.804,144.698 171.854,145.000 171.912 M140.634 172.155 C 140.935 172.213,141.372 172.210,141.604 172.150 C 141.836 172.089,141.589 172.042,141.055 172.044 C 140.522 172.047,140.332 172.097,140.634 172.155 M219.341 174.166 C 219.341 174.633,219.391 174.824,219.452 174.591 C 219.513 174.357,219.513 173.975,219.452 173.742 C 219.391 173.508,219.341 173.699,219.341 174.166 M122.438 173.859 C 123.005 173.910,123.933 173.910,124.500 173.859 C 125.067 173.808,124.603 173.766,123.469 173.766 C 122.335 173.766,121.871 173.808,122.438 173.859 M77.077 175.550 C 77.377 175.608,77.868 175.608,78.169 175.550 C 78.469 175.492,78.223 175.445,77.623 175.445 C 77.022 175.445,76.777 175.492,77.077 175.550 M248.454 178.700 C 248.687 178.761,249.069 178.761,249.303 178.700 C 249.536 178.639,249.345 178.589,248.878 178.589 C 248.411 178.589,248.220 178.639,248.454 178.700 M255.488 179.913 C 255.722 179.974,256.104 179.974,256.337 179.913 C 256.571 179.851,256.380 179.802,255.913 179.802 C 255.446 179.802,255.255 179.851,255.488 179.913 M219.346 184.233 C 219.348 184.767,219.398 184.956,219.456 184.655 C 219.514 184.353,219.512 183.916,219.451 183.684 C 219.390 183.452,219.343 183.699,219.346 184.233 M61.118 224.439 C 62.123 225.510,62.341 225.703,62.341 225.520 C 62.341 225.482,61.822 224.963,61.189 224.368 L 60.036 223.287 61.118 224.439 M282.657 224.257 C 282.659 224.791,282.709 224.981,282.767 224.679 C 282.825 224.377,282.823 223.940,282.762 223.709 C 282.701 223.477,282.654 223.723,282.657 224.257 M276.887 226.137 L 275.440 227.653 276.956 226.205 C 278.364 224.860,278.583 224.621,278.404 224.621 C 278.366 224.621,277.684 225.303,276.887 226.137 M282.668 235.537 C 282.668 236.270,282.714 236.571,282.769 236.204 C 282.825 235.837,282.825 235.237,282.769 234.870 C 282.714 234.503,282.668 234.803,282.668 235.537 M232.792 238.055 C 232.700 238.293,232.633 238.669,232.641 238.892 C 232.651 239.160,232.736 239.099,232.891 238.711 C 233.019 238.389,233.087 238.012,233.041 237.874 C 232.995 237.736,232.883 237.818,232.792 238.055 M282.894 240.873 C 282.894 241.340,282.944 241.531,283.005 241.298 C 283.066 241.064,283.066 240.682,283.005 240.449 C 282.944 240.215,282.894 240.406,282.894 240.873 M241.176 243.473 C 241.543 243.528,242.144 243.528,242.511 243.473 C 242.878 243.417,242.577 243.372,241.844 243.372 C 241.110 243.372,240.810 243.417,241.176 243.473 M283.137 244.512 C 283.137 244.979,283.187 245.170,283.248 244.936 C 283.309 244.703,283.309 244.321,283.248 244.087 C 283.187 243.854,283.137 244.045,283.137 244.512 M241.540 244.440 C 241.841 244.498,242.332 244.498,242.632 244.440 C 242.932 244.383,242.686 244.335,242.086 244.335 C 241.486 244.335,241.240 244.383,241.540 244.440 M76.837 247.594 C 77.139 247.652,77.576 247.650,77.808 247.589 C 78.039 247.529,77.793 247.481,77.259 247.484 C 76.725 247.487,76.536 247.536,76.837 247.594 M63.862 253.972 C 63.862 254.572,63.910 254.818,63.967 254.518 C 64.025 254.218,64.025 253.727,63.967 253.426 C 63.910 253.126,63.862 253.372,63.862 253.972 M66.209 267.981 L 65.373 268.890 66.283 268.054 C 67.129 267.276,67.304 267.071,67.119 267.071 C 67.078 267.071,66.669 267.480,66.209 267.981 M147.483 268.344 C 147.125 268.832,147.067 269.002,147.329 268.789 C 147.727 268.466,148.328 267.556,148.144 267.556 C 148.098 267.556,147.800 267.911,147.483 268.344 M284.107 277.744 C 284.107 278.211,284.157 278.402,284.218 278.169 C 284.279 277.935,284.279 277.553,284.218 277.320 C 284.157 277.086,284.107 277.277,284.107 277.744 M73.441 284.465 C 73.743 284.523,74.180 284.521,74.412 284.460 C 74.643 284.399,74.397 284.352,73.863 284.355 C 73.329 284.357,73.140 284.407,73.441 284.465 M75.382 284.950 C 75.684 285.008,76.120 285.006,76.352 284.945 C 76.584 284.885,76.337 284.837,75.804 284.840 C 75.270 284.843,75.080 284.892,75.382 284.950 M81.075 302.001 C 81.075 302.468,81.125 302.659,81.186 302.426 C 81.247 302.192,81.247 301.810,81.186 301.577 C 81.125 301.343,81.075 301.534,81.075 302.001 M280.761 304.002 L 280.049 304.791 280.837 304.078 C 281.572 303.414,281.737 303.214,281.549 303.214 C 281.508 303.214,281.153 303.569,280.761 304.002 M98.302 314.297 C 98.535 314.358,98.918 314.358,99.151 314.297 C 99.384 314.236,99.193 314.186,98.727 314.186 C 98.260 314.186,98.069 314.236,98.302 314.297 M136.023 319.102 C 136.087 319.436,136.181 319.709,136.232 319.709 C 136.283 319.709,136.325 319.436,136.325 319.102 C 136.325 318.769,136.231 318.496,136.116 318.496 C 136.001 318.496,135.959 318.769,136.023 319.102 M129.710 328.131 C 130.140 328.185,130.904 328.186,131.408 328.133 C 131.911 328.081,131.559 328.037,130.625 328.036 C 129.691 328.035,129.279 328.078,129.710 328.131 M134.812 328.370 C 135.114 328.428,135.550 328.426,135.782 328.366 C 136.014 328.305,135.767 328.257,135.233 328.260 C 134.700 328.263,134.510 328.312,134.812 328.370 M138.933 328.613 C 139.233 328.670,139.724 328.670,140.024 328.613 C 140.324 328.555,140.079 328.508,139.478 328.508 C 138.878 328.508,138.633 328.555,138.933 328.613 M287.674 333.918 C 286.690 335.103,290.986 366.712,293.136 374.109 C 293.920 376.808,293.977 376.550,292.405 377.449 C 291.664 377.873,291.101 378.265,291.154 378.318 C 291.275 378.439,295.916 375.829,300.300 373.177 C 303.878 371.011,304.084 370.778,304.787 368.102 C 306.413 361.912,305.369 359.233,293.625 339.478 C 290.029 333.428,288.932 332.403,287.674 333.918 M243.145 342.353 C 237.316 345.495,233.221 350.434,232.255 355.487 C 230.569 364.298,235.567 370.770,243.991 370.684 C 247.126 370.652,247.018 370.515,245.652 372.793 C 240.358 381.626,233.148 382.255,226.856 374.435 L 225.401 372.625 224.975 373.760 C 223.827 376.817,221.150 381.438,218.555 384.839 L 217.074 386.780 220.787 390.390 C 226.718 396.156,230.110 399.059,230.751 398.916 C 231.048 398.849,232.329 398.622,233.596 398.411 C 235.640 398.071,242.811 396.615,244.373 396.223 C 244.841 396.105,244.994 395.868,245.117 395.066 C 245.447 392.930,246.001 391.744,247.351 390.286 C 248.967 388.541,248.960 388.541,249.723 390.046 C 251.409 393.373,252.833 394.016,256.245 392.989 C 260.029 391.850,261.439 390.409,261.963 387.144 C 263.236 379.211,259.487 366.621,250.512 348.688 C 246.671 341.013,246.270 340.669,243.145 342.353 M258.638 351.982 L 257.845 352.888 259.522 357.099 C 265.150 371.236,268.119 381.262,268.147 386.234 C 268.156 387.668,268.219 388.841,268.289 388.842 C 268.359 388.842,269.717 388.323,271.309 387.690 L 274.202 386.537 274.848 382.953 C 275.203 380.981,275.564 379.298,275.649 379.213 C 275.734 379.128,275.804 379.121,275.804 379.198 C 275.804 379.275,276.066 380.358,276.387 381.604 C 276.709 382.850,277.037 384.163,277.116 384.523 L 277.262 385.177 278.170 384.801 C 279.334 384.319,286.045 381.107,286.188 380.964 C 286.303 380.848,283.794 377.973,271.788 364.463 C 258.756 349.800,259.735 350.729,258.638 351.982 M204.730 369.603 C 199.737 370.129,188.116 373.489,183.784 375.660 C 179.108 378.003,177.363 380.601,179.218 382.456 C 179.930 383.167,180.200 383.319,183.626 384.932 C 187.482 386.746,192.116 392.003,192.116 394.562 C 192.116 394.988,194.013 397.042,194.569 397.219 C 196.488 397.828,198.545 394.531,198.274 391.279 C 197.996 387.949,198.711 387.278,202.547 387.268 C 206.217 387.257,206.627 386.859,208.575 381.425 C 209.098 379.968,210.041 377.472,210.671 375.880 C 212.798 370.508,211.288 368.913,204.730 369.603 M169.745 386.234 C 165.369 390.569,161.987 397.313,163.890 397.908 C 165.776 398.497,179.324 400.323,184.224 400.647 L 186.641 400.807 185.803 399.737 C 181.320 394.014,172.754 383.748,172.461 383.748 C 172.347 383.748,171.125 384.867,169.745 386.234 M207.719 396.995 C 206.813 397.442,206.186 398.787,206.186 400.283 L 206.186 401.284 209.036 401.122 C 218.220 400.601,217.605 400.826,214.751 399.029 C 211.443 396.946,209.159 396.285,207.719 396.995 " stroke="none" fill="#0c1b1c" fill-rule="evenodd"></path><path id="path3" d="M173.219 2.199 C 171.382 2.851,168.598 3.395,167.081 3.399 L 165.797 3.402 167.237 4.132 C 170.461 5.767,170.815 6.362,168.941 6.997 C 166.480 7.830,164.794 9.074,159.854 13.703 C 154.574 18.650,153.656 19.163,149.601 19.429 C 146.055 19.662,144.481 20.277,143.453 21.830 C 141.533 24.732,130.102 28.019,125.248 27.066 C 123.240 26.671,121.534 27.504,115.039 32.050 C 109.792 35.723,104.362 38.294,98.703 39.785 C 94.480 40.897,91.630 41.961,90.057 43.012 C 88.377 44.135,88.432 44.556,90.412 45.725 C 93.356 47.462,92.597 48.400,87.886 48.843 C 84.577 49.154,84.757 48.846,85.252 53.339 C 85.459 55.210,85.630 57.755,85.634 58.995 C 85.641 61.675,85.880 62.830,86.900 65.116 C 87.608 66.701,87.677 67.099,87.833 70.467 C 88.093 76.078,88.715 78.483,90.391 80.352 C 90.840 80.853,91.207 81.518,91.207 81.831 C 91.207 82.143,91.425 83.034,91.693 83.810 C 92.298 85.569,92.318 85.557,90.716 84.377 L 89.388 83.398 90.479 84.403 C 91.079 84.955,91.909 85.703,92.323 86.063 C 92.872 86.542,93.257 87.277,93.748 88.781 C 94.118 89.915,94.737 91.675,95.124 92.691 L 95.827 94.540 94.808 96.330 C 93.159 99.229,90.144 105.622,88.697 109.290 C 87.472 112.396,86.641 115.007,85.151 120.437 C 84.145 124.105,83.161 126.144,80.413 130.260 C 77.806 134.164,77.092 135.450,74.891 140.215 C 74.058 142.016,73.408 142.982,71.952 144.581 C 68.569 148.296,67.973 149.796,67.764 155.120 C 67.600 159.270,67.867 161.705,68.769 164.321 C 69.927 167.674,69.488 168.926,67.762 167.200 L 66.859 166.297 67.329 167.103 C 67.587 167.545,68.207 168.142,68.706 168.429 C 69.937 169.136,69.850 169.378,68.400 169.278 C 66.941 169.177,67.364 169.705,68.945 169.958 C 70.695 170.238,69.707 171.013,67.599 171.013 C 66.321 171.013,67.207 171.464,68.648 171.547 L 69.982 171.623 68.890 171.916 L 67.799 172.209 69.193 172.137 C 70.685 172.059,70.768 172.177,69.540 172.633 C 68.788 172.913,68.796 172.917,69.861 172.799 L 70.952 172.678 71.875 174.187 C 72.717 175.566,72.802 175.866,72.859 177.660 C 72.913 179.381,73.060 179.951,74.050 182.271 L 75.179 184.917 73.091 187.971 C 71.943 189.651,69.292 193.317,67.201 196.119 C 61.457 203.814,59.207 207.725,57.853 212.371 C 55.546 220.289,57.462 223.578,69.350 232.103 L 69.932 232.520 69.136 235.666 C 67.743 241.171,66.261 245.411,64.699 248.361 C 61.971 253.510,62.839 258.237,67.437 263.267 L 68.682 264.629 66.371 266.892 C 62.524 270.658,61.585 273.591,62.936 277.623 C 64.309 281.720,66.730 284.058,70.224 284.660 C 71.381 284.860,73.279 286.919,75.846 290.758 C 79.214 295.795,80.223 298.569,80.685 304.063 C 81.274 311.053,81.879 314.372,82.566 314.372 C 82.863 314.372,82.865 314.218,82.580 313.270 C 82.088 311.633,81.558 307.754,81.172 302.956 C 80.665 296.658,79.041 293.122,73.885 287.083 C 71.763 284.598,71.681 284.841,74.647 284.827 C 80.903 284.797,87.542 282.427,94.545 277.725 C 100.879 273.472,113.640 263.598,113.721 262.886 C 114.017 260.314,109.283 257.811,93.875 252.393 C 90.740 251.290,86.963 249.947,85.481 249.408 C 80.565 247.618,76.700 247.188,74.169 248.150 C 72.543 248.768,72.304 248.760,70.954 248.042 C 69.608 247.327,67.954 247.043,67.025 247.369 C 66.425 247.580,66.508 247.610,67.721 247.620 C 68.700 247.627,69.569 247.838,70.728 248.349 C 72.443 249.104,72.454 249.104,74.591 248.296 C 77.275 247.281,80.908 248.072,90.115 251.676 C 91.716 252.303,96.236 253.951,100.158 255.337 C 110.389 258.955,114.367 261.415,113.095 263.338 C 111.830 265.251,92.645 278.744,87.944 281.027 C 78.017 285.847,67.612 285.497,64.833 280.249 C 62.064 275.018,63.013 270.552,67.719 266.658 C 69.922 264.835,69.931 264.806,68.633 263.542 C 63.592 258.635,62.640 253.740,65.618 248.035 C 66.320 246.690,67.190 244.665,67.552 243.535 C 68.173 241.595,70.625 232.068,70.517 232.013 C 67.184 230.310,59.596 223.390,58.546 221.095 C 56.209 215.990,59.360 207.273,67.270 196.968 C 70.919 192.215,71.606 191.271,73.645 188.217 C 76.047 184.621,75.956 185.232,74.530 182.264 C 73.417 179.947,73.378 179.793,73.378 177.668 C 73.378 175.524,73.355 175.437,72.468 174.149 C 71.569 172.843,71.348 172.226,71.781 172.226 C 71.904 172.226,72.164 172.164,72.360 172.089 C 72.913 171.877,74.469 174.526,74.469 175.679 C 74.469 176.514,74.521 176.588,75.015 176.464 C 75.315 176.389,76.653 176.124,77.987 175.876 C 79.321 175.628,80.230 175.414,80.006 175.402 C 79.637 175.381,79.633 175.314,79.964 174.649 C 80.165 174.248,80.343 173.311,80.360 172.568 L 80.392 171.215 81.494 171.380 C 85.202 171.933,86.202 174.158,83.081 174.911 C 82.446 175.064,82.500 175.090,83.511 175.112 C 85.642 175.157,86.079 172.654,84.133 171.554 C 80.743 169.637,72.710 167.643,71.777 168.487 C 70.792 169.379,69.913 168.743,69.800 167.056 C 69.745 166.230,69.469 164.947,69.187 164.203 C 68.509 162.416,68.163 159.498,68.163 155.566 L 68.163 152.356 69.996 153.671 C 73.198 155.968,74.539 156.501,77.067 156.482 C 79.048 156.466,81.116 156.853,82.838 157.562 C 83.270 157.740,83.287 157.717,82.990 157.353 C 82.452 156.691,82.928 156.879,84.253 157.852 L 85.491 158.761 84.186 156.336 C 81.244 150.869,79.450 148.478,77.138 146.941 C 76.232 146.339,76.159 146.241,76.713 146.365 C 78.750 146.818,78.778 146.816,77.865 146.293 C 77.398 146.026,76.143 145.514,75.076 145.157 C 74.008 144.799,73.091 144.468,73.037 144.421 C 72.983 144.374,73.403 143.674,73.971 142.866 C 74.538 142.057,75.384 140.446,75.850 139.285 C 77.186 135.962,78.713 133.204,80.311 131.231 C 83.311 127.525,84.601 124.731,86.371 118.096 C 88.645 109.575,93.472 98.584,97.940 91.753 C 98.137 91.452,98.241 91.207,98.173 91.207 C 98.105 91.207,97.699 91.753,97.271 92.420 C 96.284 93.958,96.070 93.998,96.943 92.480 C 99.166 88.612,100.689 86.417,102.008 85.178 L 103.471 83.804 107.709 82.787 C 132.690 76.791,160.216 78.854,182.880 88.420 L 185.609 89.572 185.445 90.450 C 185.264 91.414,180.797 106.339,176.453 120.494 C 174.928 125.463,173.681 129.638,173.681 129.773 C 173.681 129.924,174.735 130.018,176.419 130.018 C 197.662 130.018,212.680 141.711,217.703 162.162 C 219.776 170.602,220.186 188.085,218.411 192.334 C 218.218 192.795,218.145 193.252,218.248 193.350 C 218.863 193.931,226.944 197.170,227.110 196.902 C 227.212 196.738,227.867 195.648,228.566 194.479 C 236.717 180.847,244.243 176.953,257.684 179.410 C 260.514 179.927,260.183 180.096,256.323 180.103 C 251.578 180.112,248.396 181.459,245.118 184.845 L 243.905 186.098 245.725 184.730 C 249.942 181.560,254.422 180.167,257.965 180.927 C 258.411 181.023,259.515 180.859,260.876 180.495 C 268.091 178.565,277.381 180.478,281.339 184.710 C 286.878 190.631,288.612 204.146,284.904 212.492 C 284.460 213.493,283.912 215.154,283.687 216.183 C 282.048 223.687,268.075 235.214,255.670 239.296 C 254.136 239.801,251.953 240.628,250.819 241.134 C 246.131 243.228,241.252 244.013,239.175 243.010 C 238.708 242.784,237.835 242.475,237.235 242.323 C 235.056 241.771,233.593 240.578,233.100 238.954 L 232.910 238.326 232.889 239.017 C 232.837 240.764,234.666 242.588,236.829 242.944 C 237.386 243.036,238.496 243.385,239.297 243.720 C 242.154 244.914,244.107 244.532,253.487 240.944 C 255.555 240.153,258.229 239.148,259.430 238.709 C 267.504 235.763,277.112 228.683,281.612 222.365 C 282.338 221.345,282.951 220.535,282.974 220.565 C 282.997 220.594,282.913 221.983,282.787 223.651 C 282.239 230.921,283.262 248.718,284.984 261.887 C 285.376 264.884,285.377 265.289,284.993 268.747 C 284.049 277.242,283.876 283.546,284.551 284.807 C 284.671 285.031,285.479 285.721,286.346 286.339 C 291.728 290.180,289.658 295.185,277.754 307.116 C 260.466 324.442,238.074 337.836,211.158 346.950 C 206.060 348.676,202.346 350.106,193.208 353.862 C 184.187 357.569,166.555 365.218,163.732 366.648 C 161.961 367.546,160.346 366.596,158.157 363.372 C 155.540 359.517,150.179 346.595,148.322 339.665 C 145.207 328.043,145.885 328.385,125.409 328.103 C 118.881 328.013,118.142 328.031,121.649 328.196 C 136.083 328.873,141.840 329.403,142.890 330.151 C 144.755 331.479,146.257 334.793,147.866 341.131 C 149.793 348.725,155.164 360.908,158.504 365.264 C 160.528 367.903,161.922 368.399,164.153 367.273 C 166.692 365.992,190.202 356.130,201.143 351.756 C 204.840 350.278,210.462 348.182,213.635 347.098 C 244.744 336.471,272.241 318.574,286.837 299.454 C 290.997 294.005,291.031 287.772,286.914 285.143 L 285.775 284.415 285.765 275.561 C 285.747 260.631,286.863 254.294,291.365 243.758 C 295.079 235.063,299.490 228.625,309.278 217.604 C 315.306 210.817,317.905 207.450,320.575 202.966 C 323.016 198.868,323.282 198.593,324.624 198.782 C 327.061 199.127,328.101 197.506,327.160 194.828 C 325.303 189.542,326.084 187.980,331.474 186.203 C 336.183 184.649,336.378 184.376,335.351 180.763 C 333.774 175.216,334.160 173.556,337.684 170.733 C 343.383 166.167,344.788 161.953,341.771 158.478 C 340.282 156.763,340.481 155.924,343.686 150.394 C 348.398 142.268,349.775 138.174,348.454 136.227 C 347.530 134.866,347.953 132.688,349.567 130.495 C 349.779 130.207,349.587 129.195,348.714 126.008 C 348.095 123.744,347.434 120.910,347.245 119.709 C 347.056 118.508,346.450 114.633,345.899 111.098 C 344.310 100.907,344.270 100.723,343.240 98.605 C 342.721 97.538,341.517 95.634,340.565 94.374 C 339.613 93.114,338.193 91.149,337.408 90.008 C 336.624 88.866,335.315 87.113,334.499 86.113 C 331.152 82.005,331.110 81.874,332.312 79.287 C 334.152 75.329,333.623 71.520,331.281 71.863 C 330.713 71.947,330.530 71.836,330.210 71.215 C 329.997 70.804,328.961 69.019,327.908 67.248 C 326.854 65.478,326.069 63.906,326.163 63.754 C 326.268 63.585,326.225 63.546,326.053 63.652 C 325.899 63.747,325.773 63.715,325.773 63.581 C 325.773 63.173,322.183 57.606,321.219 56.519 C 320.357 55.549,320.214 55.485,318.168 55.157 C 315.976 54.806,315.176 54.533,311.332 52.822 C 309.172 51.860,309.142 51.835,309.231 51.069 C 309.358 49.986,308.788 49.485,307.430 49.485 C 305.884 49.485,304.013 48.321,303.858 47.263 C 303.766 46.637,302.696 45.128,301.985 44.621 C 300.931 43.871,300.014 42.399,298.744 39.418 C 297.640 36.830,295.804 33.584,295.123 33.019 C 294.850 32.792,294.575 33.243,293.624 35.473 C 292.984 36.976,292.397 38.274,292.319 38.359 C 292.241 38.444,290.758 38.091,289.024 37.575 L 285.870 36.636 278.957 36.646 C 273.971 36.654,270.962 36.778,268.163 37.092 C 266.028 37.331,264.252 37.505,264.216 37.477 C 264.180 37.449,266.823 36.270,270.090 34.856 L 276.030 32.286 277.779 32.880 C 278.740 33.207,279.570 33.475,279.623 33.475 C 279.948 33.475,276.576 27.569,276.167 27.422 C 275.901 27.326,273.249 26.950,270.276 26.586 L 264.869 25.923 261.728 28.237 L 258.587 30.551 258.423 29.890 C 257.829 27.495,255.483 18.896,255.402 18.814 C 255.347 18.760,252.520 18.635,249.119 18.538 L 242.935 18.362 241.058 16.934 L 239.181 15.507 231.840 17.548 L 224.500 19.590 224.290 18.588 C 224.175 18.037,224.081 15.767,224.080 13.542 C 224.078 9.616,224.063 9.495,223.561 9.376 C 223.277 9.309,220.511 8.858,217.415 8.373 L 211.787 7.491 205.772 8.224 C 202.464 8.627,197.504 9.130,194.751 9.340 L 189.744 9.723 187.561 8.849 C 182.512 6.828,174.606 2.709,174.772 2.186 C 174.957 1.603,174.897 1.603,173.219 2.199 M185.437 19.542 L 187.126 19.698 185.437 20.497 L 183.748 21.297 182.963 20.412 C 181.976 19.299,181.975 19.111,182.959 19.264 C 183.393 19.331,184.508 19.456,185.437 19.542 M209.283 20.108 L 210.318 20.255 208.026 24.864 C 205.523 29.895,204.675 31.170,204.234 30.564 C 203.959 30.186,204.079 22.727,204.392 20.685 L 204.550 19.660 206.399 19.810 C 207.415 19.893,208.713 20.027,209.283 20.108 M191.809 22.685 L 193.208 23.266 192.092 23.277 C 191.479 23.282,190.114 23.353,189.060 23.433 L 187.144 23.580 188.357 22.722 C 189.663 21.797,189.671 21.797,191.809 22.685 M161.093 31.716 C 160.039 33.633,158.050 34.940,154.913 35.775 L 151.829 36.597 149.905 35.354 C 148.846 34.669,148.032 34.058,148.095 33.995 C 148.158 33.932,151.129 33.310,154.699 32.612 C 158.268 31.914,161.220 31.332,161.258 31.317 C 161.296 31.303,161.222 31.483,161.093 31.716 M117.768 43.292 C 120.364 43.619,121.072 43.823,124.306 45.176 C 128.635 46.987,128.560 47.021,122.046 46.225 C 119.248 45.883,116.895 45.603,116.818 45.603 C 116.740 45.603,116.677 46.313,116.677 47.180 L 116.677 48.757 115.464 48.757 C 114.797 48.757,114.251 48.656,114.251 48.532 C 114.251 48.318,113.914 45.592,113.638 43.582 C 113.514 42.672,113.526 42.654,114.184 42.788 C 114.555 42.863,116.167 43.089,117.768 43.292 M104.181 44.157 C 105.380 44.304,106.378 44.444,106.399 44.468 C 106.421 44.492,106.124 46.367,105.739 48.636 C 105.354 50.904,105.038 52.823,105.037 52.900 C 105.035 52.978,104.773 53.181,104.454 53.351 C 103.567 53.826,103.305 54.656,103.486 56.419 C 103.670 58.216,102.820 60.371,101.390 61.737 L 100.630 62.462 100.769 61.856 C 100.845 61.522,101.186 59.427,101.527 57.200 L 102.146 53.151 101.405 48.953 C 100.998 46.644,100.607 44.503,100.537 44.196 C 100.420 43.684,100.474 43.648,101.205 43.764 C 101.643 43.833,102.982 44.010,104.181 44.157 M167.063 53.600 L 168.086 53.865 165.629 57.072 C 163.336 60.066,162.286 61.337,162.578 60.764 C 162.647 60.631,163.105 58.813,163.597 56.724 L 164.491 52.927 165.266 53.131 C 165.692 53.243,166.500 53.454,167.063 53.600 M142.105 58.676 L 143.154 58.824 139.732 61.062 L 136.310 63.300 134.476 62.572 L 132.643 61.843 130.239 63.925 C 128.917 65.069,127.835 65.905,127.835 65.781 C 127.835 64.228,129.859 59.437,130.570 59.307 C 136.466 58.232,138.250 58.135,142.105 58.676 M256.334 59.916 L 260.030 60.913 264.945 59.832 C 267.649 59.238,269.880 58.768,269.903 58.790 C 269.927 58.811,269.654 59.518,269.297 60.360 L 268.648 61.892 264.039 63.829 C 261.504 64.894,258.422 66.188,257.189 66.704 L 254.948 67.643 252.993 66.064 L 251.037 64.485 246.793 65.195 C 244.459 65.585,242.636 65.819,242.742 65.714 C 243.755 64.715,251.997 58.762,252.274 58.829 C 252.474 58.878,254.301 59.367,256.334 59.916 M189.500 62.197 C 191.516 63.410,191.536 63.264,189.217 64.252 C 186.813 65.276,187.117 65.399,186.031 62.961 L 185.107 60.884 186.480 61.046 C 187.466 61.161,188.320 61.487,189.500 62.197 M307.946 86.225 L 305.839 88.521 305.133 87.999 C 304.745 87.712,304.427 87.414,304.427 87.336 C 304.427 87.212,309.759 83.936,309.969 83.931 C 310.015 83.930,309.105 84.963,307.946 86.225 M327.952 89.378 C 327.954 89.507,327.503 90.073,326.950 90.637 L 325.944 91.663 324.532 90.950 C 323.723 90.541,323.160 90.107,323.215 89.934 C 323.267 89.767,323.489 89.061,323.709 88.366 L 324.108 87.101 326.028 88.123 C 327.083 88.685,327.949 89.250,327.952 89.378 M125.470 138.814 C 124.903 138.951,124.439 139.156,124.439 139.270 C 124.439 139.385,123.678 139.478,122.749 139.478 C 121.346 139.478,121.082 139.540,121.198 139.842 C 121.313 140.144,121.051 140.208,119.674 140.214 C 118.159 140.221,118.053 140.253,118.482 140.578 C 118.913 140.904,118.829 140.934,117.497 140.934 C 115.707 140.934,113.143 141.588,110.049 142.833 C 107.597 143.819,107.343 143.858,108.247 143.103 C 109.245 142.271,108.334 142.617,106.288 143.848 C 105.177 144.516,104.140 144.990,103.983 144.900 C 103.827 144.811,103.780 144.827,103.879 144.936 C 104.084 145.162,103.642 145.785,103.276 145.785 C 103.143 145.785,103.183 145.601,103.366 145.376 C 104.078 144.502,102.072 145.902,101.217 146.877 C 100.748 147.411,100.488 147.609,100.637 147.317 C 101.008 146.597,100.979 146.396,100.557 146.746 C 98.652 148.327,99.422 152.977,101.571 152.873 C 104.521 152.730,106.221 152.819,107.186 153.166 C 108.744 153.726,109.113 153.651,110.169 152.563 C 111.318 151.379,114.906 149.025,115.585 149.008 C 115.852 149.002,116.725 148.753,117.526 148.455 C 119.566 147.696,122.264 147.254,124.682 147.281 C 126.119 147.298,126.486 147.354,125.894 147.467 L 125.045 147.630 126.137 147.764 C 126.989 147.868,127.309 147.804,127.592 147.473 C 129.564 145.180,133.879 139.790,133.896 139.600 C 133.952 138.973,127.365 138.359,125.470 138.814 M135.476 144.224 C 133.742 146.320,132.347 148.096,132.376 148.172 C 132.406 148.247,134.134 148.554,136.217 148.853 C 140.411 149.456,141.037 149.607,139.600 149.672 L 138.629 149.716 139.964 150.017 C 140.697 150.183,142.708 150.618,144.431 150.983 C 149.067 151.967,155.909 153.889,157.753 154.725 C 159.452 155.495,159.521 155.496,159.118 154.745 C 158.718 153.996,159.006 154.158,161.875 156.288 C 163.365 157.395,164.743 158.397,164.936 158.515 C 165.454 158.832,163.175 155.924,160.995 153.487 C 159.951 152.320,159.162 151.364,159.241 151.364 C 159.320 151.364,159.763 151.523,160.226 151.716 C 164.006 153.295,156.385 148.780,152.038 146.865 C 149.571 145.778,149.447 145.617,151.593 146.285 C 152.441 146.549,153.178 146.720,153.232 146.667 C 153.426 146.473,148.523 144.222,145.427 143.083 C 142.859 142.138,142.427 141.915,143.117 141.889 C 143.857 141.860,143.732 141.781,142.147 141.272 C 138.533 140.110,139.081 139.868,135.476 144.224 M119.466 159.579 C 118.933 159.822,118.334 160.228,118.136 160.483 C 117.794 160.924,117.799 160.928,118.258 160.553 C 119.206 159.777,119.979 159.515,121.771 159.358 L 123.590 159.200 122.013 159.169 C 120.949 159.148,120.121 159.281,119.466 159.579 M127.107 160.079 C 130.628 160.809,136.137 162.227,140.796 163.602 C 145.086 164.868,144.482 164.458,139.801 162.927 C 135.363 161.475,130.885 160.314,127.500 159.737 C 123.893 159.122,123.624 159.356,127.107 160.079 M115.111 161.310 C 115.204 161.643,115.425 162.271,115.602 162.705 C 115.779 163.138,115.821 163.493,115.694 163.493 C 115.568 163.493,115.460 163.411,115.455 163.311 C 115.450 163.211,115.169 162.802,114.829 162.401 L 114.211 161.674 114.586 162.433 C 114.792 162.851,115.264 163.552,115.635 163.993 C 116.279 164.759,116.285 164.787,115.765 164.651 C 114.906 164.426,115.129 164.686,116.252 165.218 L 117.283 165.707 116.356 165.556 C 115.847 165.473,115.246 165.349,115.022 165.281 C 114.798 165.213,114.888 165.321,115.221 165.520 C 115.555 165.719,116.452 166.022,117.215 166.192 C 118.526 166.484,118.594 166.535,118.458 167.119 C 118.091 168.690,117.076 171.249,116.073 173.134 C 115.469 174.270,115.112 175.093,115.280 174.964 C 116.482 174.036,117.760 173.834,123.469 173.670 C 127.440 173.556,130.089 173.352,132.201 173.000 C 135.475 172.453,139.497 172.091,145.058 171.843 C 150.752 171.589,150.849 171.520,147.176 170.333 C 145.473 169.783,141.544 168.780,138.444 168.106 C 128.249 165.888,119.021 163.218,117.685 162.101 C 116.025 160.714,115.839 160.635,116.293 161.514 C 116.894 162.676,116.733 162.728,115.801 161.674 C 115.067 160.843,114.967 160.791,115.111 161.310 M71.032 164.487 L 70.467 164.983 71.437 164.847 C 71.971 164.772,73.335 164.698,74.469 164.682 C 76.706 164.650,76.178 164.441,73.094 164.137 C 71.805 164.010,71.520 164.058,71.032 164.487 M84.869 168.529 C 84.995 168.764,85.346 169.173,85.650 169.439 C 86.102 169.834,86.079 169.757,85.522 169.012 C 84.803 168.049,84.487 167.816,84.869 168.529 M134.518 169.193 C 137.722 169.924,139.658 170.930,139.043 171.545 C 138.758 171.830,132.886 172.446,130.327 172.460 L 128.817 172.468 129.076 171.801 C 129.219 171.434,129.333 170.466,129.331 169.651 L 129.327 168.167 131.189 168.513 C 132.213 168.703,133.711 169.009,134.518 169.193 M70.989 169.347 C 70.668 169.534,70.466 169.532,70.274 169.340 C 70.079 169.145,70.200 169.074,70.722 169.080 C 71.349 169.086,71.382 169.119,70.989 169.347 M71.232 170.318 C 70.911 170.504,70.708 170.502,70.516 170.310 C 70.321 170.115,70.442 170.044,70.964 170.050 C 71.592 170.056,71.625 170.089,71.232 170.318 M78.169 175.550 C 77.868 175.608,77.377 175.608,77.077 175.550 C 76.777 175.492,77.022 175.445,77.623 175.445 C 78.223 175.445,78.469 175.492,78.169 175.550 M77.502 224.474 C 76.573 224.882,74.227 226.989,74.227 227.415 C 74.227 227.893,75.310 228.662,76.733 229.192 C 78.079 229.695,77.843 229.712,83.352 228.707 C 86.294 228.171,86.038 227.474,82.205 225.588 C 79.100 224.060,78.675 223.959,77.502 224.474 M101.688 227.774 C 99.545 230.150,97.188 231.415,94.063 231.863 C 92.773 232.048,92.691 232.085,93.527 232.111 C 97.287 232.225,100.946 230.294,102.563 227.344 C 103.278 226.038,103.233 226.060,101.688 227.774 M141.916 303.760 C 141.490 304.193,140.764 305.169,140.301 305.929 C 139.342 307.505,138.526 308.083,136.105 308.907 C 135.163 309.227,132.831 310.311,130.924 311.315 C 125.905 313.956,118.834 315.643,113.159 315.554 C 111.616 315.530,110.711 315.679,108.740 316.282 C 105.478 317.280,104.630 317.100,101.561 314.758 C 100.593 314.019,100.343 313.930,99.806 314.134 C 99.462 314.265,98.448 314.372,97.554 314.372 C 96.658 314.372,95.119 314.596,94.129 314.871 C 92.444 315.338,92.257 315.345,91.177 314.992 C 89.662 314.497,89.506 314.508,87.779 315.235 C 85.973 315.995,84.650 315.967,84.297 315.161 C 83.950 314.372,83.432 314.493,82.535 315.573 C 81.607 316.691,81.563 317.192,82.276 318.566 C 82.860 319.691,82.968 321.416,82.615 323.984 C 82.431 325.329,82.470 325.580,83.036 326.652 C 83.380 327.303,83.892 328.347,84.174 328.974 C 84.919 330.626,85.513 331.277,86.434 331.450 C 86.882 331.534,87.503 331.874,87.814 332.205 C 88.223 332.640,88.635 332.808,89.294 332.808 C 89.797 332.808,90.283 332.929,90.375 333.077 C 90.780 333.734,95.570 335.477,96.960 335.474 C 99.789 335.469,101.480 334.846,103.942 332.904 C 104.475 332.483,105.403 331.893,106.004 331.594 C 106.604 331.294,107.607 330.676,108.234 330.220 C 108.997 329.664,109.811 329.319,110.706 329.174 C 111.440 329.054,112.838 328.610,113.813 328.186 C 114.788 327.763,116.240 327.146,117.041 326.816 C 117.841 326.487,118.769 325.901,119.102 325.516 C 119.539 325.012,120.420 324.570,122.253 323.937 C 123.652 323.453,125.101 322.900,125.473 322.708 C 125.845 322.516,126.774 322.244,127.538 322.103 C 128.302 321.963,130.455 321.139,132.323 320.272 C 134.190 319.406,135.855 318.640,136.022 318.570 C 136.226 318.485,136.325 318.686,136.325 319.184 C 136.325 319.590,136.437 319.992,136.573 320.076 C 136.736 320.177,136.768 319.895,136.666 319.259 L 136.511 318.287 138.483 317.296 C 140.447 316.308,140.459 316.296,141.394 314.429 C 141.910 313.397,142.782 311.680,143.332 310.612 C 145.205 306.976,145.468 303.947,143.965 303.319 C 142.841 302.850,142.800 302.858,141.916 303.760 M288.647 309.250 C 288.054 309.634,286.859 310.681,285.992 311.576 C 285.124 312.471,283.469 314.012,282.313 315.000 C 280.708 316.372,280.113 317.052,279.798 317.877 L 279.385 318.957 280.139 320.569 C 281.049 322.513,281.205 323.516,283.582 342.753 C 285.613 359.197,285.573 358.654,284.812 359.269 C 283.773 360.111,283.534 359.911,279.060 354.457 C 264.657 336.897,258.865 330.403,257.247 329.997 C 256.154 329.722,248.576 333.131,243.604 336.134 C 232.264 342.981,225.535 351.160,223.542 360.517 L 223.401 361.180 221.767 360.056 C 213.132 354.114,199.152 353.527,186.416 358.573 C 171.255 364.580,154.787 380.277,150.150 393.143 C 149.850 393.974,149.537 394.612,149.454 394.561 C 149.276 394.451,149.248 394.753,149.046 398.908 C 148.611 407.858,153.822 414.007,165.013 417.749 C 171.780 420.011,175.915 420.536,192.480 421.233 C 203.100 421.681,201.853 421.336,203.826 424.372 C 210.563 434.736,212.131 438.756,211.158 443.178 C 210.240 447.352,210.858 448.178,213.508 446.319 C 214.278 445.779,216.302 444.567,218.006 443.627 C 223.883 440.382,227.536 437.250,227.528 435.462 C 227.523 434.194,227.393 434.071,224.972 433.034 C 220.025 430.917,217.572 428.339,215.332 422.903 C 214.897 421.847,213.730 419.509,212.739 417.708 C 205.924 405.323,204.348 396.604,208.926 396.604 C 210.309 396.604,216.207 399.480,216.857 400.471 C 216.925 400.574,217.690 401.239,218.557 401.949 C 222.174 404.909,224.143 406.870,225.438 408.800 C 226.174 409.897,228.084 412.323,229.682 414.190 C 233.345 418.473,234.035 419.588,234.350 421.743 C 235.374 428.726,235.500 429.109,236.779 429.109 C 237.799 429.109,238.506 428.290,240.245 425.097 C 242.831 420.347,245.067 418.643,246.096 420.634 C 246.794 421.984,248.250 421.560,251.003 419.206 C 253.653 416.940,254.135 416.659,258.554 414.799 C 270.831 409.631,275.326 405.766,277.072 398.878 C 278.304 394.017,277.695 384.476,275.845 379.624 L 275.613 379.018 275.469 379.624 C 275.390 379.958,275.052 381.704,274.718 383.505 C 271.482 400.974,265.366 407.579,252.395 407.611 C 241.463 407.638,234.785 404.000,220.787 390.390 L 217.074 386.780 218.555 384.839 C 221.150 381.438,223.827 376.817,224.975 373.760 L 225.401 372.625 226.856 374.435 C 233.148 382.255,240.358 381.626,245.652 372.793 C 247.018 370.515,247.126 370.652,243.991 370.684 C 229.627 370.831,227.450 352.764,240.752 343.801 C 246.084 340.208,246.329 340.331,250.512 348.688 C 260.061 367.768,263.830 381.369,261.616 388.764 C 261.103 390.479,257.719 393.361,256.850 392.824 C 256.735 392.753,256.640 392.822,256.640 392.977 C 256.640 393.133,256.472 393.195,256.264 393.115 C 256.048 393.033,255.951 393.073,256.036 393.211 C 256.117 393.343,255.932 393.465,255.624 393.482 C 255.316 393.499,254.791 393.548,254.457 393.591 C 252.785 393.809,250.923 392.414,249.723 390.046 C 248.960 388.541,248.967 388.541,247.351 390.286 C 243.370 394.585,245.080 402.020,250.693 404.823 C 254.504 406.727,263.687 402.599,266.048 397.921 C 270.170 389.756,268.591 379.878,259.522 357.099 L 257.845 352.887 258.717 351.923 L 259.588 350.958 260.797 352.253 C 264.076 355.764,279.394 372.957,285.681 380.182 C 286.649 381.294,286.481 381.310,288.660 379.914 C 289.660 379.273,290.571 378.734,290.683 378.717 C 290.795 378.700,291.024 378.498,291.192 378.269 C 291.382 378.009,291.617 377.926,291.814 378.048 C 292.002 378.164,292.072 378.148,291.985 378.008 C 291.820 377.741,293.166 376.864,293.461 377.046 C 293.849 377.286,293.714 376.098,293.124 374.067 C 290.985 366.708,286.694 335.099,287.674 333.918 C 289.209 332.068,290.463 333.712,299.134 348.939 C 305.841 360.718,306.570 363.711,304.230 369.861 C 303.964 370.561,303.784 371.134,303.830 371.134 C 303.876 371.134,306.469 369.507,309.591 367.518 C 319.353 361.299,321.182 360.434,320.828 362.202 C 320.441 364.138,319.235 365.390,312.166 371.192 C 306.764 375.626,305.267 377.333,305.727 378.532 C 306.290 379.997,308.605 378.505,314.558 372.839 C 316.595 370.901,318.698 369.102,319.231 368.841 L 320.200 368.367 321.478 369.629 C 322.181 370.323,322.936 370.891,323.156 370.891 C 324.182 370.891,326.090 367.435,328.795 360.673 C 329.682 358.455,330.648 356.416,330.941 356.143 C 332.288 354.885,333.626 355.421,333.933 357.341 C 334.534 361.102,336.621 359.679,338.512 354.216 C 341.123 346.676,345.336 339.223,349.459 334.848 C 352.642 331.471,360.212 330.737,366.203 333.223 L 367.859 333.911 368.696 336.088 C 371.607 343.665,367.005 350.427,359.237 349.988 C 356.098 349.811,355.579 347.119,358.684 347.119 C 361.319 347.119,364.305 344.076,363.991 341.709 C 363.583 338.628,362.078 337.293,359.024 337.301 C 349.082 337.326,349.890 352.242,359.868 352.888 C 361.434 352.990,361.737 352.927,363.415 352.151 C 371.687 348.329,373.992 342.073,370.095 334.021 C 366.519 326.632,358.378 325.406,349.709 330.951 C 348.946 331.439,348.288 331.837,348.245 331.837 C 348.203 331.837,347.741 332.207,347.219 332.658 C 346.697 333.109,345.070 334.509,343.602 335.768 C 340.485 338.444,336.824 342.409,333.769 346.417 C 332.576 347.983,331.409 349.454,331.176 349.686 C 330.944 349.919,330.752 350.232,330.750 350.383 C 330.748 350.533,330.309 351.404,329.776 352.318 C 325.862 359.023,321.252 358.722,315.743 351.403 C 309.903 343.643,293.787 315.750,292.406 311.012 C 291.695 308.573,290.532 308.028,288.647 309.250 M209.098 369.702 C 212.001 370.324,212.341 371.660,210.671 375.880 C 210.041 377.472,209.098 379.968,208.575 381.425 C 206.627 386.859,206.217 387.257,202.547 387.268 C 198.711 387.278,197.996 387.949,198.274 391.279 C 198.545 394.531,196.488 397.828,194.569 397.219 C 194.013 397.042,192.116 394.988,192.116 394.562 C 192.116 392.003,187.482 386.746,183.626 384.932 C 180.200 383.319,179.930 383.167,179.218 382.456 C 176.762 380.000,180.409 376.558,188.392 373.797 C 198.055 370.456,205.630 368.958,209.098 369.702 M176.777 388.660 C 181.567 394.414,185.898 399.779,186.486 400.686 C 186.714 401.038,188.431 403.293,190.300 405.696 C 193.425 409.715,197.849 415.682,200.689 419.709 C 202.088 421.693,202.219 421.668,197.210 420.367 C 169.845 413.258,158.317 402.216,166.048 390.517 C 167.156 388.840,171.988 383.748,172.471 383.748 C 172.591 383.748,174.529 385.958,176.777 388.660 " stroke="none" fill="#040404" fill-rule="evenodd"></path><path id="path4" d="M142.729 93.632 C 135.265 94.726,140.183 100.166,148.648 100.178 C 154.038 100.186,156.940 98.809,155.471 96.941 C 153.381 94.283,147.934 92.869,142.729 93.632 M137.897 134.723 C 136.314 135.412,134.761 138.380,133.164 143.766 C 132.243 146.868,134.688 145.254,138.193 140.444 C 141.536 135.857,141.398 133.197,137.897 134.723 M129.533 169.658 C 129.533 170.386,129.420 171.278,129.282 171.641 L 129.031 172.301 132.860 172.129 C 140.916 171.767,140.984 170.677,133.050 169.072 C 131.716 168.802,130.379 168.526,130.079 168.458 C 129.565 168.342,129.533 168.412,129.533 169.658 M80.474 172.799 C 80.413 173.618,80.280 174.478,80.179 174.712 C 79.958 175.227,80.232 175.245,82.424 174.864 C 85.784 174.279,85.558 172.470,82.022 171.646 L 80.587 171.311 80.474 172.799 M85.048 185.631 C 80.293 190.489,67.192 208.920,67.192 210.751 C 67.192 212.460,68.227 212.810,70.186 211.765 C 72.223 210.678,73.061 210.764,76.057 212.371 C 78.723 213.801,79.564 213.966,80.849 213.308 C 82.269 212.580,82.228 212.268,80.457 210.313 C 78.091 207.700,77.380 205.916,77.380 202.591 C 77.380 199.846,78.523 198.057,84.982 190.689 C 89.297 185.769,89.355 181.230,85.048 185.631 M265.979 184.114 C 263.925 184.337,262.604 184.667,260.522 185.479 C 258.013 186.457,256.458 187.564,258.212 187.123 C 258.619 187.021,258.762 186.892,258.586 186.783 C 258.275 186.591,258.994 186.490,265.616 185.799 C 268.084 185.541,271.140 185.321,272.408 185.309 L 274.712 185.289 273.407 184.826 C 272.200 184.397,271.152 184.218,268.648 184.010 C 268.114 183.966,266.913 184.013,265.979 184.114 M149.262 194.171 C 144.060 196.798,143.050 197.640,144.318 198.296 C 146.815 199.587,151.396 197.817,152.830 195.007 C 154.119 192.480,153.088 192.239,149.262 194.171 M80.655 251.427 C 84.231 252.710,85.463 252.979,85.737 252.536 C 86.368 251.515,82.316 250.078,78.884 250.106 L 77.016 250.122 80.655 251.427 M85.281 269.876 C 83.345 270.261,80.584 271.507,81.401 271.628 C 82.210 271.748,86.117 270.809,87.568 270.146 L 88.902 269.536 87.932 269.539 C 87.398 269.541,86.206 269.692,85.281 269.876 " stroke="none" fill="#faf1f0" fill-rule="evenodd"></path></g></svg>